solid Untitled-5e35a932
facet normal 0.0 0.0 -1.0
  outer loop
    vertex 62.000778359489765 111.60946487301905 0.9999999999999999
    vertex 62.000778359489765 106.43308397096864 0.9999999999999999
    vertex 61.660036622380446 109.02127442199385 0.9999999999999999
  endloop
endfacet
facet normal 0.0 0.0 -1.0
  outer loop
    vertex 62.000778359489765 106.43308397096864 0.9999999999999999
    vertex 62.000778359489765 111.60946487301905 0.9999999999999999
    vertex 62.99978258453606 114.02127442199384 0.9999999999999999
  endloop
endfacet
facet normal 0.0 0.0 -1.0
  outer loop
    vertex 62.000778359489765 106.43308397096864 0.9999999999999999
    vertex 62.99978258453606 114.02127442199384 0.9999999999999999
    vertex 62.99978258453606 104.02127442199387 0.9999999999999999
  endloop
endfacet
facet normal 0.0 0.0 -1.0
  outer loop
    vertex 62.99978258453606 104.02127442199387 0.9999999999999999
    vertex 62.99978258453606 114.02127442199384 0.9999999999999999
    vertex 64.58896881051497 116.09234223385933 0.9999999999999999
  endloop
endfacet
facet normal 0.0 0.0 -1.0
  outer loop
    vertex 62.99978258453606 104.02127442199387 0.9999999999999999
    vertex 64.58896881051497 116.09234223385933 0.9999999999999999
    vertex 64.58896881051497 101.95020661012838 0.9999999999999999
  endloop
endfacet
facet normal 0.0 0.0 -1.0
  outer loop
    vertex 64.58896881051497 101.95020661012838 0.9999999999999999
    vertex 64.58896881051497 116.09234223385933 0.9999999999999999
    vertex 66.66003662238045 117.68152845983823 0.9999999999999999
  endloop
endfacet
facet normal 0.0 0.0 -1.0
  outer loop
    vertex 64.58896881051497 101.95020661012838 0.9999999999999999
    vertex 66.66003662238045 117.68152845983823 0.9999999999999999
    vertex 66.66003662238043 100.36102038414947 0.9999999999999999
  endloop
endfacet
facet normal 0.0 0.0 -1.0
  outer loop
    vertex 66.66003662238043 100.36102038414947 0.9999999999999999
    vertex 66.66003662238045 117.68152845983823 0.9999999999999999
    vertex 69.07184617135522 99.36201615910318 0.9999999999999999
  endloop
endfacet
facet normal 0.0 0.0 -1.0
  outer loop
    vertex 69.07184617135522 99.36201615910318 0.9999999999999999
    vertex 66.66003662238045 117.68152845983823 0.9999999999999999
    vertex 69.07184617135523 118.68053268488453 0.9999999999999999
  endloop
endfacet
facet normal 0.0 0.0 -1.0
  outer loop
    vertex 69.07184617135522 99.36201615910318 0.9999999999999999
    vertex 69.07184617135523 118.68053268488453 0.9999999999999999
    vertex 71.66003662238045 99.02127442199385 0.9999999999999999
  endloop
endfacet
facet normal 0.0 0.0 -1.0
  outer loop
    vertex 71.66003662238045 99.02127442199385 0.9999999999999999
    vertex 69.07184617135523 118.68053268488453 0.9999999999999999
    vertex 71.66003662238045 119.02127442199385 0.9999999999999999
  endloop
endfacet
facet normal 0.0 0.0 -1.0
  outer loop
    vertex 71.66003662238045 99.02127442199385 0.9999999999999999
    vertex 71.66003662238045 119.02127442199385 0.9999999999999999
    vertex 74.24822707340564 118.68053268488453 0.9999999999999999
  endloop
endfacet
facet normal 0.0 0.0 -1.0
  outer loop
    vertex 71.66003662238045 99.02127442199385 0.9999999999999999
    vertex 74.24822707340564 118.68053268488453 0.9999999999999999
    vertex 74.24822707340564 99.36201615910318 0.9999999999999999
  endloop
endfacet
facet normal 0.0 0.0 -1.0
  outer loop
    vertex 74.24822707340564 99.36201615910318 0.9999999999999999
    vertex 74.24822707340564 118.68053268488453 0.9999999999999999
    vertex 76.66003662238045 117.68152845983823 0.9999999999999999
  endloop
endfacet
facet normal 0.0 0.0 -1.0
  outer loop
    vertex 74.24822707340564 99.36201615910318 0.9999999999999999
    vertex 76.66003662238045 117.68152845983823 0.9999999999999999
    vertex 76.66003662238043 100.36102038414947 0.9999999999999999
  endloop
endfacet
facet normal 0.0 0.0 -1.0
  outer loop
    vertex 76.66003662238043 100.36102038414947 0.9999999999999999
    vertex 76.66003662238045 117.68152845983823 0.9999999999999999
    vertex 78.7311044342459 101.95020661012838 0.9999999999999999
  endloop
endfacet
facet normal 0.0 0.0 -1.0
  outer loop
    vertex 78.7311044342459 101.95020661012838 0.9999999999999999
    vertex 76.66003662238045 117.68152845983823 0.9999999999999999
    vertex 78.7311044342459 116.09234223385933 0.9999999999999999
  endloop
endfacet
facet normal 0.0 0.0 -1.0
  outer loop
    vertex 78.7311044342459 101.95020661012838 0.9999999999999999
    vertex 78.7311044342459 116.09234223385933 0.9999999999999999
    vertex 80.32029066022483 114.02127442199384 0.9999999999999999
  endloop
endfacet
facet normal 0.0 0.0 -1.0
  outer loop
    vertex 78.7311044342459 101.95020661012838 0.9999999999999999
    vertex 80.32029066022483 114.02127442199384 0.9999999999999999
    vertex 80.32029066022483 104.02127442199387 0.9999999999999999
  endloop
endfacet
facet normal 0.0 0.0 -1.0
  outer loop
    vertex 80.32029066022483 104.02127442199387 0.9999999999999999
    vertex 80.32029066022483 114.02127442199384 0.9999999999999999
    vertex 81.31929488527112 111.60946487301905 0.9999999999999999
  endloop
endfacet
facet normal 0.0 0.0 -1.0
  outer loop
    vertex 80.32029066022483 104.02127442199387 0.9999999999999999
    vertex 81.31929488527112 111.60946487301905 0.9999999999999999
    vertex 81.31929488527112 106.43308397096864 0.9999999999999999
  endloop
endfacet
facet normal 0.0 0.0 -1.0
  outer loop
    vertex 81.31929488527112 106.43308397096864 0.9999999999999999
    vertex 81.31929488527112 111.60946487301905 0.9999999999999999
    vertex 81.66003662238043 109.02127442199385 0.9999999999999999
  endloop
endfacet
facet normal -0.3826834323650902 0.9238795325112865 0.0
  outer loop
    vertex 66.66003662238045 117.68152845983823 11.3
    vertex 69.07184617135523 118.68053268488453 0.9999999999999999
    vertex 66.66003662238045 117.68152845983823 0.9999999999999999
  endloop
endfacet
facet normal -0.3826834323650902 0.9238795325112865 0.0
  outer loop
    vertex 69.07184617135523 118.68053268488453 0.9999999999999999
    vertex 66.66003662238045 117.68152845983823 11.3
    vertex 69.07184617135523 118.68053268488453 11.3
  endloop
endfacet
facet normal 0.13052619222005188 -0.9914448613738105 0.0
  outer loop
    vertex 74.24822707340564 99.36201615910318 11.3
    vertex 71.66003662238045 99.02127442199385 0.9999999999999999
    vertex 74.24822707340564 99.36201615910318 0.9999999999999999
  endloop
endfacet
facet normal 0.13052619222005188 -0.9914448613738105 0.0
  outer loop
    vertex 71.66003662238045 99.02127442199385 0.9999999999999999
    vertex 74.24822707340564 99.36201615910318 11.3
    vertex 71.66003662238045 99.02127442199385 11.3
  endloop
endfacet
facet normal 0.13052619222005613 0.9914448613738098 0.0
  outer loop
    vertex 71.66003662238045 119.02127442199385 11.3
    vertex 74.24822707340564 118.68053268488453 0.9999999999999999
    vertex 71.66003662238045 119.02127442199385 0.9999999999999999
  endloop
endfacet
facet normal 0.13052619222005613 0.9914448613738098 0.0
  outer loop
    vertex 74.24822707340564 118.68053268488453 0.9999999999999999
    vertex 71.66003662238045 119.02127442199385 11.3
    vertex 74.24822707340564 118.68053268488453 11.3
  endloop
endfacet
facet normal 0.3826834323650887 0.9238795325112873 0.0
  outer loop
    vertex 74.24822707340564 118.68053268488453 11.3
    vertex 76.66003662238045 117.68152845983823 0.9999999999999999
    vertex 74.24822707340564 118.68053268488453 0.9999999999999999
  endloop
endfacet
facet normal 0.3826834323650887 0.9238795325112873 0.0
  outer loop
    vertex 76.66003662238045 117.68152845983823 0.9999999999999999
    vertex 74.24822707340564 118.68053268488453 11.3
    vertex 76.66003662238045 117.68152845983823 11.3
  endloop
endfacet
facet normal -0.6087614290087218 -0.7933533402912343 0.0
  outer loop
    vertex 66.66003662238043 100.36102038414947 11.3
    vertex 64.58896881051497 101.95020661012838 0.9999999999999999
    vertex 66.66003662238043 100.36102038414947 0.9999999999999999
  endloop
endfacet
facet normal -0.6087614290087218 -0.7933533402912343 0.0
  outer loop
    vertex 64.58896881051497 101.95020661012838 0.9999999999999999
    vertex 66.66003662238043 100.36102038414947 11.3
    vertex 64.58896881051497 101.95020661012838 11.3
  endloop
endfacet
facet normal -0.7933533402912359 0.6087614290087195 0.0
  outer loop
    vertex 64.58896881051497 116.09234223385933 11.3
    vertex 62.99978258453606 114.02127442199384 0.9999999999999999
    vertex 62.99978258453606 114.02127442199384 11.3
  endloop
endfacet
facet normal -0.7933533402912359 0.6087614290087195 0.0
  outer loop
    vertex 62.99978258453606 114.02127442199384 0.9999999999999999
    vertex 64.58896881051497 116.09234223385933 11.3
    vertex 64.58896881051497 116.09234223385933 0.9999999999999999
  endloop
endfacet
facet normal -0.1305261922200513 -0.9914448613738105 0.0
  outer loop
    vertex 71.66003662238045 99.02127442199385 11.3
    vertex 69.07184617135522 99.36201615910318 0.9999999999999999
    vertex 71.66003662238045 99.02127442199385 0.9999999999999999
  endloop
endfacet
facet normal -0.1305261922200513 -0.9914448613738105 0.0
  outer loop
    vertex 69.07184617135522 99.36201615910318 0.9999999999999999
    vertex 71.66003662238045 99.02127442199385 11.3
    vertex 69.07184617135522 99.36201615910318 11.3
  endloop
endfacet
facet normal -0.6087614290087195 0.7933533402912359 0.0
  outer loop
    vertex 64.58896881051497 116.09234223385933 11.3
    vertex 66.66003662238045 117.68152845983823 0.9999999999999999
    vertex 64.58896881051497 116.09234223385933 0.9999999999999999
  endloop
endfacet
facet normal -0.6087614290087195 0.7933533402912359 0.0
  outer loop
    vertex 66.66003662238045 117.68152845983823 0.9999999999999999
    vertex 64.58896881051497 116.09234223385933 11.3
    vertex 66.66003662238045 117.68152845983823 11.3
  endloop
endfacet
facet normal 0.9238795325112865 0.3826834323650902 0.0
  outer loop
    vertex 80.32029066022483 114.02127442199384 0.9999999999999999
    vertex 81.31929488527112 111.60946487301905 11.3
    vertex 81.31929488527112 111.60946487301905 0.9999999999999999
  endloop
endfacet
facet normal 0.9238795325112865 0.3826834323650902 0.0
  outer loop
    vertex 81.31929488527112 111.60946487301905 11.3
    vertex 80.32029066022483 114.02127442199384 0.9999999999999999
    vertex 80.32029066022483 114.02127442199384 11.3
  endloop
endfacet
facet normal 0.6087614290087218 0.7933533402912344 0.0
  outer loop
    vertex 76.66003662238045 117.68152845983823 11.3
    vertex 78.7311044342459 116.09234223385933 0.9999999999999999
    vertex 76.66003662238045 117.68152845983823 0.9999999999999999
  endloop
endfacet
facet normal 0.6087614290087218 0.7933533402912344 0.0
  outer loop
    vertex 78.7311044342459 116.09234223385933 0.9999999999999999
    vertex 76.66003662238045 117.68152845983823 11.3
    vertex 78.7311044342459 116.09234223385933 11.3
  endloop
endfacet
facet normal -0.9238795325112865 -0.3826834323650902 0.0
  outer loop
    vertex 62.000778359489765 106.43308397096864 11.3
    vertex 62.99978258453606 104.02127442199387 0.9999999999999999
    vertex 62.99978258453606 104.02127442199387 11.3
  endloop
endfacet
facet normal -0.9238795325112865 -0.3826834323650902 0.0
  outer loop
    vertex 62.99978258453606 104.02127442199387 0.9999999999999999
    vertex 62.000778359489765 106.43308397096864 11.3
    vertex 62.000778359489765 106.43308397096864 0.9999999999999999
  endloop
endfacet
facet normal 0.9914448613738105 -0.13052619222005188 0.0
  outer loop
    vertex 81.66003662238043 109.02127442199385 0.9999999999999999
    vertex 81.31929488527112 106.43308397096864 11.3
    vertex 81.31929488527112 106.43308397096864 0.9999999999999999
  endloop
endfacet
facet normal 0.9914448613738105 -0.13052619222005188 0.0
  outer loop
    vertex 81.31929488527112 106.43308397096864 11.3
    vertex 81.66003662238043 109.02127442199385 0.9999999999999999
    vertex 81.66003662238043 109.02127442199385 11.3
  endloop
endfacet
facet normal 0.9238795325112865 -0.3826834323650902 0.0
  outer loop
    vertex 81.31929488527112 106.43308397096864 0.9999999999999999
    vertex 80.32029066022483 104.02127442199387 11.3
    vertex 80.32029066022483 104.02127442199387 0.9999999999999999
  endloop
endfacet
facet normal 0.9238795325112865 -0.3826834323650902 0.0
  outer loop
    vertex 80.32029066022483 104.02127442199387 11.3
    vertex 81.31929488527112 106.43308397096864 0.9999999999999999
    vertex 81.31929488527112 106.43308397096864 11.3
  endloop
endfacet
facet normal 0.7933533402912359 -0.6087614290087195 0.0
  outer loop
    vertex 80.32029066022483 104.02127442199387 0.9999999999999999
    vertex 78.7311044342459 101.95020661012838 11.3
    vertex 78.7311044342459 101.95020661012838 0.9999999999999999
  endloop
endfacet
facet normal 0.7933533402912359 -0.6087614290087195 0.0
  outer loop
    vertex 78.7311044342459 101.95020661012838 11.3
    vertex 80.32029066022483 104.02127442199387 0.9999999999999999
    vertex 80.32029066022483 104.02127442199387 11.3
  endloop
endfacet
facet normal -0.9914448613738105 0.13052619222005188 0.0
  outer loop
    vertex 62.000778359489765 111.60946487301905 11.3
    vertex 61.660036622380446 109.02127442199385 0.9999999999999999
    vertex 61.660036622380446 109.02127442199385 11.3
  endloop
endfacet
facet normal -0.9914448613738105 0.13052619222005188 0.0
  outer loop
    vertex 61.660036622380446 109.02127442199385 0.9999999999999999
    vertex 62.000778359489765 111.60946487301905 11.3
    vertex 62.000778359489765 111.60946487301905 0.9999999999999999
  endloop
endfacet
facet normal -0.9238795325112865 0.3826834323650902 0.0
  outer loop
    vertex 62.99978258453606 114.02127442199384 11.3
    vertex 62.000778359489765 111.60946487301905 0.9999999999999999
    vertex 62.000778359489765 111.60946487301905 11.3
  endloop
endfacet
facet normal -0.9238795325112865 0.3826834323650902 0.0
  outer loop
    vertex 62.000778359489765 111.60946487301905 0.9999999999999999
    vertex 62.99978258453606 114.02127442199384 11.3
    vertex 62.99978258453606 114.02127442199384 0.9999999999999999
  endloop
endfacet
facet normal 0.7933533402912359 0.6087614290087195 0.0
  outer loop
    vertex 78.7311044342459 116.09234223385933 0.9999999999999999
    vertex 80.32029066022483 114.02127442199384 11.3
    vertex 80.32029066022483 114.02127442199384 0.9999999999999999
  endloop
endfacet
facet normal 0.7933533402912359 0.6087614290087195 0.0
  outer loop
    vertex 80.32029066022483 114.02127442199384 11.3
    vertex 78.7311044342459 116.09234223385933 0.9999999999999999
    vertex 78.7311044342459 116.09234223385933 11.3
  endloop
endfacet
facet normal -0.9914448613738105 -0.13052619222005188 0.0
  outer loop
    vertex 61.660036622380446 109.02127442199385 11.3
    vertex 62.000778359489765 106.43308397096864 0.9999999999999999
    vertex 62.000778359489765 106.43308397096864 11.3
  endloop
endfacet
facet normal -0.9914448613738105 -0.13052619222005188 0.0
  outer loop
    vertex 62.000778359489765 106.43308397096864 0.9999999999999999
    vertex 61.660036622380446 109.02127442199385 11.3
    vertex 61.660036622380446 109.02127442199385 0.9999999999999999
  endloop
endfacet
facet normal -0.7933533402912359 -0.6087614290087195 0.0
  outer loop
    vertex 62.99978258453606 104.02127442199387 11.3
    vertex 64.58896881051497 101.95020661012838 0.9999999999999999
    vertex 64.58896881051497 101.95020661012838 11.3
  endloop
endfacet
facet normal -0.7933533402912359 -0.6087614290087195 0.0
  outer loop
    vertex 64.58896881051497 101.95020661012838 0.9999999999999999
    vertex 62.99978258453606 104.02127442199387 11.3
    vertex 62.99978258453606 104.02127442199387 0.9999999999999999
  endloop
endfacet
facet normal 0.9914448613738105 0.13052619222005188 0.0
  outer loop
    vertex 81.31929488527112 111.60946487301905 0.9999999999999999
    vertex 81.66003662238043 109.02127442199385 11.3
    vertex 81.66003662238043 109.02127442199385 0.9999999999999999
  endloop
endfacet
facet normal 0.9914448613738105 0.13052619222005188 0.0
  outer loop
    vertex 81.66003662238043 109.02127442199385 11.3
    vertex 81.31929488527112 111.60946487301905 0.9999999999999999
    vertex 81.31929488527112 111.60946487301905 11.3
  endloop
endfacet
facet normal -0.3826834323650902 -0.9238795325112865 0.0
  outer loop
    vertex 69.07184617135522 99.36201615910318 11.3
    vertex 66.66003662238043 100.36102038414947 0.9999999999999999
    vertex 69.07184617135522 99.36201615910318 0.9999999999999999
  endloop
endfacet
facet normal -0.3826834323650902 -0.9238795325112865 0.0
  outer loop
    vertex 66.66003662238043 100.36102038414947 0.9999999999999999
    vertex 69.07184617135522 99.36201615910318 11.3
    vertex 66.66003662238043 100.36102038414947 11.3
  endloop
endfacet
facet normal -0.13052619222005613 0.9914448613738098 0.0
  outer loop
    vertex 69.07184617135523 118.68053268488453 11.3
    vertex 71.66003662238045 119.02127442199385 0.9999999999999999
    vertex 69.07184617135523 118.68053268488453 0.9999999999999999
  endloop
endfacet
facet normal -0.13052619222005613 0.9914448613738098 0.0
  outer loop
    vertex 71.66003662238045 119.02127442199385 0.9999999999999999
    vertex 69.07184617135523 118.68053268488453 11.3
    vertex 71.66003662238045 119.02127442199385 11.3
  endloop
endfacet
facet normal 0.6087614290087195 -0.7933533402912359 0.0
  outer loop
    vertex 78.7311044342459 101.95020661012838 11.3
    vertex 76.66003662238043 100.36102038414947 0.9999999999999999
    vertex 78.7311044342459 101.95020661012838 0.9999999999999999
  endloop
endfacet
facet normal 0.6087614290087195 -0.7933533402912359 0.0
  outer loop
    vertex 76.66003662238043 100.36102038414947 0.9999999999999999
    vertex 78.7311044342459 101.95020661012838 11.3
    vertex 76.66003662238043 100.36102038414947 11.3
  endloop
endfacet
facet normal 0.3826834323650902 -0.9238795325112865 0.0
  outer loop
    vertex 76.66003662238043 100.36102038414947 11.3
    vertex 74.24822707340564 99.36201615910318 0.9999999999999999
    vertex 76.66003662238043 100.36102038414947 0.9999999999999999
  endloop
endfacet
facet normal 0.3826834323650902 -0.9238795325112865 0.0
  outer loop
    vertex 74.24822707340564 99.36201615910318 0.9999999999999999
    vertex 76.66003662238043 100.36102038414947 11.3
    vertex 74.24822707340564 99.36201615910318 11.3
  endloop
endfacet
facet normal -0.9238795325112913 0.38268343236507874 -5.603783281965781e-33
  outer loop
    vertex 74.53366595559042 108.25128776281386 5.7
    vertex 74.23646219863915 107.53377442199385 3.0
    vertex 74.23646219863915 107.53377442199385 5.7
  endloop
endfacet
facet normal -0.9238795325112913 0.38268343236507874 -5.603783281965781e-33
  outer loop
    vertex 74.23646219863915 107.53377442199385 3.0
    vertex 74.53366595559042 108.25128776281386 5.7
    vertex 74.53366595559042 108.25128776281386 3.0
  endloop
endfacet
facet normal -0.38268343236509633 0.9238795325112842 5.603783281965522e-33
  outer loop
    vertex 72.43002328156045 106.14764508878386 5.7
    vertex 73.14753662238044 106.44484884573514 3.0
    vertex 72.43002328156045 106.14764508878386 3.0
  endloop
endfacet
facet normal -0.38268343236509633 0.9238795325112842 5.603783281965522e-33
  outer loop
    vertex 73.14753662238044 106.44484884573514 3.0
    vertex 72.43002328156045 106.14764508878386 5.7
    vertex 73.14753662238044 106.44484884573514 5.7
  endloop
endfacet
facet normal 0.38268343236509117 0.9238795325112863 1.3528729599921016e-32
  outer loop
    vertex 70.17253662238043 106.44484884573514 5.7
    vertex 70.89004996320045 106.14764508878386 3.0
    vertex 70.17253662238043 106.44484884573514 3.0
  endloop
endfacet
facet normal 0.38268343236509117 0.9238795325112863 1.3528729599921016e-32
  outer loop
    vertex 70.89004996320045 106.14764508878386 3.0
    vertex 70.17253662238043 106.44484884573514 5.7
    vertex 70.89004996320045 106.14764508878386 5.7
  endloop
endfacet
facet normal -0.6087614290087304 0.7933533402912278 1.9113461204755623e-33
  outer loop
    vertex 73.14753662238044 106.44484884573514 5.7
    vertex 73.76367929641042 106.91763174796388 3.0
    vertex 73.14753662238044 106.44484884573514 3.0
  endloop
endfacet
facet normal -0.6087614290087304 0.7933533402912278 1.9113461204755623e-33
  outer loop
    vertex 73.76367929641042 106.91763174796388 3.0
    vertex 73.14753662238044 106.44484884573514 5.7
    vertex 73.76367929641042 106.91763174796388 5.7
  endloop
endfacet
facet normal 0.6087614290087304 0.7933533402912278 1.451811515544491e-32
  outer loop
    vertex 69.55639394835046 106.91763174796388 5.7
    vertex 70.17253662238043 106.44484884573514 3.0
    vertex 69.55639394835046 106.91763174796388 3.0
  endloop
endfacet
facet normal 0.6087614290087304 0.7933533402912278 1.451811515544491e-32
  outer loop
    vertex 70.17253662238043 106.44484884573514 3.0
    vertex 69.55639394835046 106.91763174796388 5.7
    vertex 70.17253662238043 106.44484884573514 5.7
  endloop
endfacet
facet normal 0.9238795325112913 0.38268343236507874 1.3528729599920942e-32
  outer loop
    vertex 68.78640728917047 108.25128776281386 3.0
    vertex 69.08361104612173 107.53377442199385 5.7
    vertex 69.08361104612173 107.53377442199385 3.0
  endloop
endfacet
facet normal 0.9238795325112913 0.38268343236507874 1.3528729599920942e-32
  outer loop
    vertex 69.08361104612173 107.53377442199385 5.7
    vertex 68.78640728917047 108.25128776281386 3.0
    vertex 68.78640728917047 108.25128776281386 5.7
  endloop
endfacet
facet normal 0.7933533402912293 0.6087614290087282 1.4518115155444904e-32
  outer loop
    vertex 69.08361104612173 107.53377442199385 3.0
    vertex 69.55639394835046 106.91763174796388 5.7
    vertex 69.55639394835046 106.91763174796388 3.0
  endloop
endfacet
facet normal 0.7933533402912293 0.6087614290087282 1.4518115155444904e-32
  outer loop
    vertex 69.55639394835046 106.91763174796388 5.7
    vertex 69.08361104612173 107.53377442199385 3.0
    vertex 69.08361104612173 107.53377442199385 5.7
  endloop
endfacet
facet normal 0.13052619222004322 0.9914448613738116 1.1617383479445192e-32
  outer loop
    vertex 70.89004996320045 106.14764508878386 5.7
    vertex 71.66003662238045 106.04627442199384 3.0
    vertex 70.89004996320045 106.14764508878386 3.0
  endloop
endfacet
facet normal 0.13052619222004322 0.9914448613738116 1.1617383479445192e-32
  outer loop
    vertex 71.66003662238045 106.04627442199384 3.0
    vertex 70.89004996320045 106.14764508878386 5.7
    vertex 71.66003662238045 106.04627442199384 5.7
  endloop
endfacet
facet normal -0.13052619222004133 0.9914448613738117 8.914331873479387e-33
  outer loop
    vertex 71.66003662238045 106.04627442199384 5.7
    vertex 72.43002328156045 106.14764508878386 3.0
    vertex 71.66003662238045 106.04627442199384 3.0
  endloop
endfacet
facet normal -0.13052619222004133 0.9914448613738117 8.914331873479387e-33
  outer loop
    vertex 72.43002328156045 106.14764508878386 3.0
    vertex 71.66003662238045 106.04627442199384 5.7
    vertex 72.43002328156045 106.14764508878386 5.7
  endloop
endfacet
facet normal -0.7933533402912293 0.6087614290087282 -1.911346120475605e-33
  outer loop
    vertex 74.23646219863915 107.53377442199385 5.7
    vertex 73.76367929641042 106.91763174796388 3.0
    vertex 73.76367929641042 106.91763174796388 5.7
  endloop
endfacet
facet normal -0.7933533402912293 0.6087614290087282 -1.911346120475605e-33
  outer loop
    vertex 73.76367929641042 106.91763174796388 3.0
    vertex 74.23646219863915 107.53377442199385 5.7
    vertex 74.23646219863915 107.53377442199385 3.0
  endloop
endfacet
facet normal -0.9914448613738097 0.13052619222005749 -8.914331873479201e-33
  outer loop
    vertex 74.63503662238044 109.02127442199385 5.7
    vertex 74.53366595559042 108.25128776281386 3.0
    vertex 74.53366595559042 108.25128776281386 5.7
  endloop
endfacet
facet normal -0.9914448613738097 0.13052619222005749 -8.914331873479201e-33
  outer loop
    vertex 74.53366595559042 108.25128776281386 3.0
    vertex 74.63503662238044 109.02127442199385 5.7
    vertex 74.63503662238044 109.02127442199385 3.0
  endloop
endfacet
facet normal 1.6163030411978806e-32 -1.4965205620636018e-32 1.0
  outer loop
    vertex 62.000778359489765 106.43308397096864 11.3
    vertex 62.000778359489765 111.60946487301905 11.3
    vertex 61.660036622380446 109.02127442199385 11.3
  endloop
endfacet
facet normal 1.6163030411978806e-32 -1.4965205620636018e-32 1.0
  outer loop
    vertex 62.000778359489765 111.60946487301905 11.3
    vertex 62.000778359489765 106.43308397096864 11.3
    vertex 62.99978258453606 104.02127442199387 11.3
  endloop
endfacet
facet normal 1.6163030411978806e-32 -1.4965205620636018e-32 1.0
  outer loop
    vertex 62.000778359489765 111.60946487301905 11.3
    vertex 62.99978258453606 104.02127442199387 11.3
    vertex 62.99978258453606 114.02127442199384 11.3
  endloop
endfacet
facet normal 1.6163030411978806e-32 -1.4965205620636018e-32 1.0
  outer loop
    vertex 62.99978258453606 114.02127442199384 11.3
    vertex 62.99978258453606 104.02127442199387 11.3
    vertex 64.58896881051497 101.95020661012838 11.3
  endloop
endfacet
facet normal 1.6163030411978806e-32 -1.4965205620636018e-32 1.0
  outer loop
    vertex 62.99978258453606 114.02127442199384 11.3
    vertex 64.58896881051497 101.95020661012838 11.3
    vertex 63.660036622380446 109.02127442199385 11.3
  endloop
endfacet
facet normal 1.6163030411978806e-32 -1.4965205620636018e-32 1.0
  outer loop
    vertex 63.660036622380446 109.02127442199385 11.3
    vertex 64.58896881051497 101.95020661012838 11.3
    vertex 63.9326300120679 106.95072206117369 11.3
  endloop
endfacet
facet normal 1.6163030411978806e-32 -1.4965205620636018e-32 1.0
  outer loop
    vertex 63.9326300120679 106.95072206117369 11.3
    vertex 64.58896881051497 101.95020661012838 11.3
    vertex 64.73183339210493 105.02127442199385 11.3
  endloop
endfacet
facet normal 1.6163030411978806e-32 -1.4965205620636018e-32 1.0
  outer loop
    vertex 64.73183339210493 105.02127442199385 11.3
    vertex 64.58896881051497 101.95020661012838 11.3
    vertex 66.66003662238043 100.36102038414947 11.3
  endloop
endfacet
facet normal 1.6163030411978806e-32 -1.4965205620636018e-32 1.0
  outer loop
    vertex 64.73183339210493 105.02127442199385 11.3
    vertex 66.66003662238043 100.36102038414947 11.3
    vertex 66.00318237288806 103.36442017250148 11.3
  endloop
endfacet
facet normal 1.6163030411978806e-32 -1.4965205620636018e-32 1.0
  outer loop
    vertex 66.00318237288806 103.36442017250148 11.3
    vertex 66.66003662238043 100.36102038414947 11.3
    vertex 67.66003662238045 102.09307119171834 11.3
  endloop
endfacet
facet normal 1.6163030411978806e-32 -1.4965205620636018e-32 1.0
  outer loop
    vertex 67.66003662238045 102.09307119171834 11.3
    vertex 66.66003662238043 100.36102038414947 11.3
    vertex 69.07184617135522 99.36201615910318 11.3
  endloop
endfacet
facet normal 1.6163030411978806e-32 -1.4965205620636018e-32 1.0
  outer loop
    vertex 67.66003662238045 102.09307119171834 11.3
    vertex 69.07184617135522 99.36201615910318 11.3
    vertex 69.58948426156029 101.29386781168131 11.3
  endloop
endfacet
facet normal 1.6163030411978806e-32 -1.4965205620636018e-32 1.0
  outer loop
    vertex 69.58948426156029 101.29386781168131 11.3
    vertex 69.07184617135522 99.36201615910318 11.3
    vertex 71.66003662238045 99.02127442199385 11.3
  endloop
endfacet
facet normal 1.6163030411978806e-32 -1.4965205620636018e-32 1.0
  outer loop
    vertex 69.58948426156029 101.29386781168131 11.3
    vertex 71.66003662238045 99.02127442199385 11.3
    vertex 71.66003662238045 101.02127442199385 11.3
  endloop
endfacet
facet normal 1.6163030411978806e-32 -1.4965205620636018e-32 1.0
  outer loop
    vertex 71.66003662238045 101.02127442199385 11.3
    vertex 71.66003662238045 99.02127442199385 11.3
    vertex 74.24822707340564 99.36201615910318 11.3
  endloop
endfacet
facet normal 1.6163030411978806e-32 -1.4965205620636018e-32 1.0
  outer loop
    vertex 71.66003662238045 101.02127442199385 11.3
    vertex 74.24822707340564 99.36201615910318 11.3
    vertex 73.7305889832006 101.29386781168131 11.3
  endloop
endfacet
facet normal 1.6163030411978806e-32 -1.4965205620636018e-32 1.0
  outer loop
    vertex 73.7305889832006 101.29386781168131 11.3
    vertex 74.24822707340564 99.36201615910318 11.3
    vertex 75.66003662238045 102.09307119171834 11.3
  endloop
endfacet
facet normal 1.6163030411978806e-32 -1.4965205620636018e-32 1.0
  outer loop
    vertex 75.66003662238045 102.09307119171834 11.3
    vertex 74.24822707340564 99.36201615910318 11.3
    vertex 76.66003662238043 100.36102038414947 11.3
  endloop
endfacet
facet normal 1.6163030411978806e-32 -1.4965205620636018e-32 1.0
  outer loop
    vertex 75.66003662238045 102.09307119171834 11.3
    vertex 76.66003662238043 100.36102038414947 11.3
    vertex 77.31689087187283 103.36442017250148 11.3
  endloop
endfacet
facet normal 1.6163030411978806e-32 -1.4965205620636018e-32 1.0
  outer loop
    vertex 77.31689087187283 103.36442017250148 11.3
    vertex 76.66003662238043 100.36102038414947 11.3
    vertex 78.7311044342459 101.95020661012838 11.3
  endloop
endfacet
facet normal 1.6163030411978806e-32 -1.4965205620636018e-32 1.0
  outer loop
    vertex 77.31689087187283 103.36442017250148 11.3
    vertex 78.7311044342459 101.95020661012838 11.3
    vertex 78.58823985265596 105.02127442199385 11.3
  endloop
endfacet
facet normal 1.6163030411978806e-32 -1.4965205620636018e-32 1.0
  outer loop
    vertex 78.58823985265596 105.02127442199385 11.3
    vertex 78.7311044342459 101.95020661012838 11.3
    vertex 79.38744323269299 106.95072206117369 11.3
  endloop
endfacet
facet normal 1.6163030411978806e-32 -1.4965205620636018e-32 1.0
  outer loop
    vertex 79.38744323269299 106.95072206117369 11.3
    vertex 78.7311044342459 101.95020661012838 11.3
    vertex 80.32029066022483 104.02127442199387 11.3
  endloop
endfacet
facet normal 1.6163030411978806e-32 -1.4965205620636018e-32 1.0
  outer loop
    vertex 79.38744323269299 106.95072206117369 11.3
    vertex 80.32029066022483 104.02127442199387 11.3
    vertex 79.66003662238043 109.02127442199385 11.3
  endloop
endfacet
facet normal 1.6163030411978806e-32 -1.4965205620636018e-32 1.0
  outer loop
    vertex 63.660036622380446 109.02127442199385 11.3
    vertex 64.58896881051497 116.09234223385933 11.3
    vertex 62.99978258453606 114.02127442199384 11.3
  endloop
endfacet
facet normal 1.6163030411978806e-32 -1.4965205620636018e-32 1.0
  outer loop
    vertex 64.58896881051497 116.09234223385933 11.3
    vertex 63.660036622380446 109.02127442199385 11.3
    vertex 63.9326300120679 111.09182678281401 11.3
  endloop
endfacet
facet normal 1.6163030411978806e-32 -1.4965205620636018e-32 1.0
  outer loop
    vertex 64.58896881051497 116.09234223385933 11.3
    vertex 63.9326300120679 111.09182678281401 11.3
    vertex 64.73183339210493 113.02127442199384 11.3
  endloop
endfacet
facet normal 1.6163030411978806e-32 -1.4965205620636018e-32 1.0
  outer loop
    vertex 64.58896881051497 116.09234223385933 11.3
    vertex 64.73183339210493 113.02127442199384 11.3
    vertex 66.66003662238045 117.68152845983823 11.3
  endloop
endfacet
facet normal 1.6163030411978806e-32 -1.4965205620636018e-32 1.0
  outer loop
    vertex 66.66003662238045 117.68152845983823 11.3
    vertex 64.73183339210493 113.02127442199384 11.3
    vertex 66.00318237288806 114.67812867148622 11.3
  endloop
endfacet
facet normal 1.6163030411978806e-32 -1.4965205620636018e-32 1.0
  outer loop
    vertex 66.66003662238045 117.68152845983823 11.3
    vertex 66.00318237288806 114.67812867148622 11.3
    vertex 67.66003662238043 115.94947765226937 11.3
  endloop
endfacet
facet normal 1.6163030411978806e-32 -1.4965205620636018e-32 1.0
  outer loop
    vertex 66.66003662238045 117.68152845983823 11.3
    vertex 67.66003662238043 115.94947765226937 11.3
    vertex 69.07184617135523 118.68053268488453 11.3
  endloop
endfacet
facet normal 1.6163030411978806e-32 -1.4965205620636018e-32 1.0
  outer loop
    vertex 69.07184617135523 118.68053268488453 11.3
    vertex 67.66003662238043 115.94947765226937 11.3
    vertex 69.58948426156027 116.74868103230641 11.3
  endloop
endfacet
facet normal 1.6163030411978806e-32 -1.4965205620636018e-32 1.0
  outer loop
    vertex 69.07184617135523 118.68053268488453 11.3
    vertex 69.58948426156027 116.74868103230641 11.3
    vertex 71.66003662238045 119.02127442199385 11.3
  endloop
endfacet
facet normal 1.6163030411978806e-32 -1.4965205620636018e-32 1.0
  outer loop
    vertex 71.66003662238045 119.02127442199385 11.3
    vertex 69.58948426156027 116.74868103230641 11.3
    vertex 71.66003662238045 117.02127442199385 11.3
  endloop
endfacet
facet normal 1.6163030411978806e-32 -1.4965205620636018e-32 1.0
  outer loop
    vertex 71.66003662238045 119.02127442199385 11.3
    vertex 71.66003662238045 117.02127442199385 11.3
    vertex 73.7305889832006 116.74868103230641 11.3
  endloop
endfacet
facet normal 1.6163030411978806e-32 -1.4965205620636018e-32 1.0
  outer loop
    vertex 71.66003662238045 119.02127442199385 11.3
    vertex 73.7305889832006 116.74868103230641 11.3
    vertex 74.24822707340564 118.68053268488453 11.3
  endloop
endfacet
facet normal 1.6163030411978806e-32 -1.4965205620636018e-32 1.0
  outer loop
    vertex 74.24822707340564 118.68053268488453 11.3
    vertex 73.7305889832006 116.74868103230641 11.3
    vertex 75.66003662238043 115.94947765226937 11.3
  endloop
endfacet
facet normal 1.6163030411978806e-32 -1.4965205620636018e-32 1.0
  outer loop
    vertex 74.24822707340564 118.68053268488453 11.3
    vertex 75.66003662238043 115.94947765226937 11.3
    vertex 76.66003662238045 117.68152845983823 11.3
  endloop
endfacet
facet normal 1.6163030411978806e-32 -1.4965205620636018e-32 1.0
  outer loop
    vertex 76.66003662238045 117.68152845983823 11.3
    vertex 75.66003662238043 115.94947765226937 11.3
    vertex 77.31689087187281 114.67812867148622 11.3
  endloop
endfacet
facet normal 1.6163030411978806e-32 -1.4965205620636018e-32 1.0
  outer loop
    vertex 76.66003662238045 117.68152845983823 11.3
    vertex 77.31689087187281 114.67812867148622 11.3
    vertex 78.7311044342459 116.09234223385933 11.3
  endloop
endfacet
facet normal 1.6163030411978806e-32 -1.4965205620636018e-32 1.0
  outer loop
    vertex 78.7311044342459 116.09234223385933 11.3
    vertex 77.31689087187281 114.67812867148622 11.3
    vertex 78.58823985265595 113.02127442199384 11.3
  endloop
endfacet
facet normal 1.6163030411978806e-32 -1.4965205620636018e-32 1.0
  outer loop
    vertex 78.7311044342459 116.09234223385933 11.3
    vertex 78.58823985265595 113.02127442199384 11.3
    vertex 79.38744323269299 111.09182678281404 11.3
  endloop
endfacet
facet normal 1.6163030411978806e-32 -1.4965205620636018e-32 1.0
  outer loop
    vertex 78.7311044342459 116.09234223385933 11.3
    vertex 79.38744323269299 111.09182678281404 11.3
    vertex 80.32029066022483 114.02127442199384 11.3
  endloop
endfacet
facet normal 1.6163030411978806e-32 -1.4965205620636018e-32 1.0
  outer loop
    vertex 80.32029066022483 114.02127442199384 11.3
    vertex 79.38744323269299 111.09182678281404 11.3
    vertex 79.66003662238043 109.02127442199385 11.3
  endloop
endfacet
facet normal 1.6163030411978806e-32 -1.4965205620636018e-32 1.0
  outer loop
    vertex 80.32029066022483 114.02127442199384 11.3
    vertex 79.66003662238043 109.02127442199385 11.3
    vertex 80.32029066022483 104.02127442199387 11.3
  endloop
endfacet
facet normal 1.6163030411978806e-32 -1.4965205620636018e-32 1.0
  outer loop
    vertex 80.32029066022483 114.02127442199384 11.3
    vertex 80.32029066022483 104.02127442199387 11.3
    vertex 81.31929488527112 106.43308397096864 11.3
  endloop
endfacet
facet normal 1.6163030411978806e-32 -1.4965205620636018e-32 1.0
  outer loop
    vertex 80.32029066022483 114.02127442199384 11.3
    vertex 81.31929488527112 106.43308397096864 11.3
    vertex 81.31929488527112 111.60946487301905 11.3
  endloop
endfacet
facet normal 1.6163030411978806e-32 -1.4965205620636018e-32 1.0
  outer loop
    vertex 81.31929488527112 111.60946487301905 11.3
    vertex 81.31929488527112 106.43308397096864 11.3
    vertex 81.66003662238043 109.02127442199385 11.3
  endloop
endfacet
facet normal 0.7933533402912374 0.6087614290087179 -2.81085748841813e-31
  outer loop
    vertex 64.73183339210493 105.02127442199385 5.7
    vertex 66.00318237288806 103.36442017250148 11.3
    vertex 66.00318237288806 103.36442017250148 5.7
  endloop
endfacet
facet normal 0.7933533402912374 0.6087614290087179 -2.81085748841813e-31
  outer loop
    vertex 66.00318237288806 103.36442017250148 11.3
    vertex 64.73183339210493 105.02127442199385 5.7
    vertex 64.73183339210493 105.02127442199385 11.3
  endloop
endfacet
facet normal 0.13052619222005146 -0.9914448613738105 -3.0134179610710996e-32
  outer loop
    vertex 71.66003662238045 117.02127442199385 11.3
    vertex 69.58948426156027 116.74868103230641 5.7
    vertex 71.66003662238045 117.02127442199385 5.7
  endloop
endfacet
facet normal 0.13052619222005146 -0.9914448613738105 -3.0134179610710996e-32
  outer loop
    vertex 69.58948426156027 116.74868103230641 5.7
    vertex 71.66003662238045 117.02127442199385 11.3
    vertex 69.58948426156027 116.74868103230641 11.3
  endloop
endfacet
facet normal -0.3826834323650866 0.9238795325112881 -3.108502129581231e-18
  outer loop
    vertex 73.7305889832006 101.29386781168131 11.3
    vertex 75.66003662238045 102.09307119171834 5.7
    vertex 73.7305889832006 101.29386781168131 5.7
  endloop
endfacet
facet normal -0.3826834323650866 0.9238795325112881 -3.108502129581231e-18
  outer loop
    vertex 75.66003662238045 102.09307119171834 5.7
    vertex 73.7305889832006 101.29386781168131 11.3
    vertex 75.66003662238045 102.09307119171834 11.3
  endloop
endfacet
facet normal -0.7933533402912347 0.6087614290087213 -6.4443358118861376e-18
  outer loop
    vertex 78.58823985265596 105.02127442199385 11.3
    vertex 77.31689087187283 103.36442017250148 5.7
    vertex 77.31689087187283 103.36442017250148 11.3
  endloop
endfacet
facet normal -0.7933533402912347 0.6087614290087213 -6.4443358118861376e-18
  outer loop
    vertex 77.31689087187283 103.36442017250148 5.7
    vertex 78.58823985265596 105.02127442199385 11.3
    vertex 78.58823985265596 105.02127442199385 5.7
  endloop
endfacet
facet normal -0.9914448613738105 -0.13052619222005077 0.0
  outer loop
    vertex 79.38744323269299 111.09182678281404 11.3
    vertex 79.66003662238043 109.02127442199385 5.7
    vertex 79.66003662238043 109.02127442199385 11.3
  endloop
endfacet
facet normal -0.9914448613738105 -0.13052619222005077 0.0
  outer loop
    vertex 79.66003662238043 109.02127442199385 5.7
    vertex 79.38744323269299 111.09182678281404 11.3
    vertex 79.38744323269299 111.09182678281404 5.7
  endloop
endfacet
facet normal -0.13052619222005213 -0.9914448613738105 0.0
  outer loop
    vertex 73.7305889832006 116.74868103230641 11.3
    vertex 71.66003662238045 117.02127442199385 5.7
    vertex 73.7305889832006 116.74868103230641 5.7
  endloop
endfacet
facet normal -0.13052619222005213 -0.9914448613738105 0.0
  outer loop
    vertex 71.66003662238045 117.02127442199385 5.7
    vertex 73.7305889832006 116.74868103230641 11.3
    vertex 71.66003662238045 117.02127442199385 11.3
  endloop
endfacet
facet normal -0.9238795325112881 0.3826834323650866 3.108502129581231e-18
  outer loop
    vertex 79.38744323269299 106.95072206117369 11.3
    vertex 78.58823985265596 105.02127442199385 5.7
    vertex 78.58823985265596 105.02127442199385 11.3
  endloop
endfacet
facet normal -0.9238795325112881 0.3826834323650866 3.108502129581231e-18
  outer loop
    vertex 78.58823985265596 105.02127442199385 5.7
    vertex 79.38744323269299 106.95072206117369 11.3
    vertex 79.38744323269299 106.95072206117369 5.7
  endloop
endfacet
facet normal -0.7933533402912347 -0.6087614290087213 6.444335811885576e-18
  outer loop
    vertex 77.31689087187281 114.67812867148622 11.3
    vertex 78.58823985265595 113.02127442199384 5.7
    vertex 78.58823985265595 113.02127442199384 11.3
  endloop
endfacet
facet normal -0.7933533402912347 -0.6087614290087213 6.444335811885576e-18
  outer loop
    vertex 78.58823985265595 113.02127442199384 5.7
    vertex 77.31689087187281 114.67812867148622 11.3
    vertex 77.31689087187281 114.67812867148622 5.7
  endloop
endfacet
facet normal -0.13052619222005146 0.9914448613738105 -3.0134179610710996e-32
  outer loop
    vertex 71.66003662238045 101.02127442199385 11.3
    vertex 73.7305889832006 101.29386781168131 5.7
    vertex 71.66003662238045 101.02127442199385 5.7
  endloop
endfacet
facet normal -0.13052619222005146 0.9914448613738105 -3.0134179610710996e-32
  outer loop
    vertex 73.7305889832006 101.29386781168131 5.7
    vertex 71.66003662238045 101.02127442199385 11.3
    vertex 73.7305889832006 101.29386781168131 11.3
  endloop
endfacet
facet normal 0.13052619222005213 0.9914448613738105 0.0
  outer loop
    vertex 69.58948426156029 101.29386781168131 11.3
    vertex 71.66003662238045 101.02127442199385 5.7
    vertex 69.58948426156029 101.29386781168131 5.7
  endloop
endfacet
facet normal 0.13052619222005213 0.9914448613738105 0.0
  outer loop
    vertex 71.66003662238045 101.02127442199385 5.7
    vertex 69.58948426156029 101.29386781168131 11.3
    vertex 71.66003662238045 101.02127442199385 11.3
  endloop
endfacet
facet normal 0.6087614290087221 0.7933533402912339 2.257752054138149e-31
  outer loop
    vertex 66.00318237288806 103.36442017250148 11.3
    vertex 67.66003662238045 102.09307119171834 5.7
    vertex 66.00318237288806 103.36442017250148 5.7
  endloop
endfacet
facet normal 0.6087614290087221 0.7933533402912339 2.257752054138149e-31
  outer loop
    vertex 67.66003662238045 102.09307119171834 5.7
    vertex 66.00318237288806 103.36442017250148 11.3
    vertex 67.66003662238045 102.09307119171834 11.3
  endloop
endfacet
facet normal -0.6087614290087247 -0.7933533402912321 3.6631807983472146e-31
  outer loop
    vertex 77.31689087187281 114.67812867148622 11.3
    vertex 75.66003662238043 115.94947765226937 5.7
    vertex 77.31689087187281 114.67812867148622 5.7
  endloop
endfacet
facet normal -0.6087614290087247 -0.7933533402912321 3.6631807983472146e-31
  outer loop
    vertex 75.66003662238043 115.94947765226937 5.7
    vertex 77.31689087187281 114.67812867148622 11.3
    vertex 75.66003662238043 115.94947765226937 11.3
  endloop
endfacet
facet normal 0.9238795325112862 0.38268343236509117 3.108502129581055e-18
  outer loop
    vertex 63.9326300120679 106.95072206117369 5.7
    vertex 64.73183339210493 105.02127442199385 11.3
    vertex 64.73183339210493 105.02127442199385 5.7
  endloop
endfacet
facet normal 0.9238795325112862 0.38268343236509117 3.108502129581055e-18
  outer loop
    vertex 64.73183339210493 105.02127442199385 11.3
    vertex 63.9326300120679 106.95072206117369 5.7
    vertex 63.9326300120679 106.95072206117369 11.3
  endloop
endfacet
facet normal 0.9914448613738105 -0.13052619222005213 1.0602521880148954e-18
  outer loop
    vertex 63.9326300120679 111.09182678281401 5.7
    vertex 63.660036622380446 109.02127442199385 11.3
    vertex 63.660036622380446 109.02127442199385 5.7
  endloop
endfacet
facet normal 0.9914448613738105 -0.13052619222005213 1.0602521880148954e-18
  outer loop
    vertex 63.660036622380446 109.02127442199385 11.3
    vertex 63.9326300120679 111.09182678281401 5.7
    vertex 63.9326300120679 111.09182678281401 11.3
  endloop
endfacet
facet normal 0.9238795325112862 -0.38268343236509117 3.108502129581055e-18
  outer loop
    vertex 64.73183339210493 113.02127442199384 5.7
    vertex 63.9326300120679 111.09182678281401 11.3
    vertex 63.9326300120679 111.09182678281401 5.7
  endloop
endfacet
facet normal 0.9238795325112862 -0.38268343236509117 3.108502129581055e-18
  outer loop
    vertex 63.9326300120679 111.09182678281401 11.3
    vertex 64.73183339210493 113.02127442199384 5.7
    vertex 64.73183339210493 113.02127442199384 11.3
  endloop
endfacet
facet normal -0.3826834323650912 -0.9238795325112862 4.265864390561446e-31
  outer loop
    vertex 75.66003662238043 115.94947765226937 11.3
    vertex 73.7305889832006 116.74868103230641 5.7
    vertex 75.66003662238043 115.94947765226937 5.7
  endloop
endfacet
facet normal -0.3826834323650912 -0.9238795325112862 4.265864390561446e-31
  outer loop
    vertex 73.7305889832006 116.74868103230641 5.7
    vertex 75.66003662238043 115.94947765226937 11.3
    vertex 73.7305889832006 116.74868103230641 11.3
  endloop
endfacet
facet normal 0.7933533402912374 -0.6087614290087179 -2.81085748841813e-31
  outer loop
    vertex 66.00318237288806 114.67812867148622 5.7
    vertex 64.73183339210493 113.02127442199384 11.3
    vertex 64.73183339210493 113.02127442199384 5.7
  endloop
endfacet
facet normal 0.7933533402912374 -0.6087614290087179 -2.81085748841813e-31
  outer loop
    vertex 64.73183339210493 113.02127442199384 11.3
    vertex 66.00318237288806 114.67812867148622 5.7
    vertex 66.00318237288806 114.67812867148622 11.3
  endloop
endfacet
facet normal -0.6087614290087247 0.7933533402912321 3.6631807983472146e-31
  outer loop
    vertex 75.66003662238045 102.09307119171834 11.3
    vertex 77.31689087187283 103.36442017250148 5.7
    vertex 75.66003662238045 102.09307119171834 5.7
  endloop
endfacet
facet normal -0.6087614290087247 0.7933533402912321 3.6631807983472146e-31
  outer loop
    vertex 77.31689087187283 103.36442017250148 5.7
    vertex 75.66003662238045 102.09307119171834 11.3
    vertex 77.31689087187283 103.36442017250148 11.3
  endloop
endfacet
facet normal -0.9238795325112846 -0.38268343236509517 0.0
  outer loop
    vertex 78.58823985265595 113.02127442199384 11.3
    vertex 79.38744323269299 111.09182678281404 5.7
    vertex 79.38744323269299 111.09182678281404 11.3
  endloop
endfacet
facet normal -0.9238795325112846 -0.38268343236509517 0.0
  outer loop
    vertex 79.38744323269299 111.09182678281404 5.7
    vertex 78.58823985265595 113.02127442199384 11.3
    vertex 78.58823985265595 113.02127442199384 5.7
  endloop
endfacet
facet normal 0.9914448613738105 0.13052619222005213 1.0602521880148954e-18
  outer loop
    vertex 63.660036622380446 109.02127442199385 5.7
    vertex 63.9326300120679 106.95072206117369 11.3
    vertex 63.9326300120679 106.95072206117369 5.7
  endloop
endfacet
facet normal 0.9914448613738105 0.13052619222005213 1.0602521880148954e-18
  outer loop
    vertex 63.9326300120679 106.95072206117369 11.3
    vertex 63.660036622380446 109.02127442199385 5.7
    vertex 63.660036622380446 109.02127442199385 11.3
  endloop
endfacet
facet normal 0.3826834323650867 0.9238795325112881 -2.1329321952807276e-31
  outer loop
    vertex 67.66003662238045 102.09307119171834 11.3
    vertex 69.58948426156029 101.29386781168131 5.7
    vertex 67.66003662238045 102.09307119171834 5.7
  endloop
endfacet
facet normal 0.3826834323650867 0.9238795325112881 -2.1329321952807276e-31
  outer loop
    vertex 69.58948426156029 101.29386781168131 5.7
    vertex 67.66003662238045 102.09307119171834 11.3
    vertex 69.58948426156029 101.29386781168131 11.3
  endloop
endfacet
facet normal 0.6087614290087247 -0.7933533402912321 3.6631807983472146e-31
  outer loop
    vertex 67.66003662238043 115.94947765226937 11.3
    vertex 66.00318237288806 114.67812867148622 5.7
    vertex 67.66003662238043 115.94947765226937 5.7
  endloop
endfacet
facet normal 0.6087614290087247 -0.7933533402912321 3.6631807983472146e-31
  outer loop
    vertex 66.00318237288806 114.67812867148622 5.7
    vertex 67.66003662238043 115.94947765226937 11.3
    vertex 66.00318237288806 114.67812867148622 11.3
  endloop
endfacet
facet normal 0.3826834323650912 -0.9238795325112862 4.265864390561446e-31
  outer loop
    vertex 69.58948426156027 116.74868103230641 11.3
    vertex 67.66003662238043 115.94947765226937 5.7
    vertex 69.58948426156027 116.74868103230641 5.7
  endloop
endfacet
facet normal 0.3826834323650912 -0.9238795325112862 4.265864390561446e-31
  outer loop
    vertex 67.66003662238043 115.94947765226937 5.7
    vertex 69.58948426156027 116.74868103230641 11.3
    vertex 67.66003662238043 115.94947765226937 11.3
  endloop
endfacet
facet normal -0.9914448613738105 0.13052619222005213 1.0602521880148954e-18
  outer loop
    vertex 79.66003662238043 109.02127442199385 11.3
    vertex 79.38744323269299 106.95072206117369 5.7
    vertex 79.38744323269299 106.95072206117369 11.3
  endloop
endfacet
facet normal -0.9914448613738105 0.13052619222005213 1.0602521880148954e-18
  outer loop
    vertex 79.38744323269299 106.95072206117369 5.7
    vertex 79.66003662238043 109.02127442199385 11.3
    vertex 79.66003662238043 109.02127442199385 5.7
  endloop
endfacet
facet normal 0.0 0.0 1.0
  outer loop
    vertex 68.78640728917047 108.25128776281386 3.0
    vertex 68.78640728917047 109.79126108117384 3.0
    vertex 68.68503662238044 109.02127442199385 3.0
  endloop
endfacet
facet normal 0.0 0.0 1.0
  outer loop
    vertex 68.78640728917047 109.79126108117384 3.0
    vertex 68.78640728917047 108.25128776281386 3.0
    vertex 69.08361104612173 107.53377442199385 3.0
  endloop
endfacet
facet normal 0.0 0.0 1.0
  outer loop
    vertex 68.78640728917047 109.79126108117384 3.0
    vertex 69.08361104612173 107.53377442199385 3.0
    vertex 69.08361104612173 110.50877442199385 3.0
  endloop
endfacet
facet normal 0.0 0.0 1.0
  outer loop
    vertex 69.08361104612173 110.50877442199385 3.0
    vertex 69.08361104612173 107.53377442199385 3.0
    vertex 69.55639394835046 106.91763174796388 3.0
  endloop
endfacet
facet normal 0.0 0.0 1.0
  outer loop
    vertex 69.08361104612173 110.50877442199385 3.0
    vertex 69.55639394835046 106.91763174796388 3.0
    vertex 69.55639394835046 111.12491709602382 3.0
  endloop
endfacet
facet normal 0.0 0.0 1.0
  outer loop
    vertex 69.55639394835046 111.12491709602382 3.0
    vertex 69.55639394835046 106.91763174796388 3.0
    vertex 70.17253662238043 106.44484884573514 3.0
  endloop
endfacet
facet normal 0.0 0.0 1.0
  outer loop
    vertex 69.55639394835046 111.12491709602382 3.0
    vertex 70.17253662238043 106.44484884573514 3.0
    vertex 70.17253662238043 111.59769999825257 3.0
  endloop
endfacet
facet normal 0.0 0.0 1.0
  outer loop
    vertex 70.17253662238043 111.59769999825257 3.0
    vertex 70.17253662238043 106.44484884573514 3.0
    vertex 70.89004996320045 106.14764508878386 3.0
  endloop
endfacet
facet normal 0.0 0.0 1.0
  outer loop
    vertex 70.17253662238043 111.59769999825257 3.0
    vertex 70.89004996320045 106.14764508878386 3.0
    vertex 70.89004996320044 111.89490375520384 3.0
  endloop
endfacet
facet normal 0.0 0.0 1.0
  outer loop
    vertex 70.89004996320044 111.89490375520384 3.0
    vertex 70.89004996320045 106.14764508878386 3.0
    vertex 71.66003662238045 111.99627442199385 3.0
  endloop
endfacet
facet normal 0.0 0.0 1.0
  outer loop
    vertex 71.66003662238045 111.99627442199385 3.0
    vertex 70.89004996320045 106.14764508878386 3.0
    vertex 71.66003662238045 106.04627442199384 3.0
  endloop
endfacet
facet normal 0.0 0.0 1.0
  outer loop
    vertex 71.66003662238045 111.99627442199385 3.0
    vertex 71.66003662238045 106.04627442199384 3.0
    vertex 72.43002328156045 106.14764508878386 3.0
  endloop
endfacet
facet normal 0.0 0.0 1.0
  outer loop
    vertex 71.66003662238045 111.99627442199385 3.0
    vertex 72.43002328156045 106.14764508878386 3.0
    vertex 72.43002328156044 111.89490375520384 3.0
  endloop
endfacet
facet normal 0.0 0.0 1.0
  outer loop
    vertex 72.43002328156044 111.89490375520384 3.0
    vertex 72.43002328156045 106.14764508878386 3.0
    vertex 73.14753662238044 111.59769999825257 3.0
  endloop
endfacet
facet normal 0.0 0.0 1.0
  outer loop
    vertex 73.14753662238044 111.59769999825257 3.0
    vertex 72.43002328156045 106.14764508878386 3.0
    vertex 73.14753662238044 106.44484884573514 3.0
  endloop
endfacet
facet normal 0.0 0.0 1.0
  outer loop
    vertex 73.14753662238044 111.59769999825257 3.0
    vertex 73.14753662238044 106.44484884573514 3.0
    vertex 73.76367929641042 106.91763174796388 3.0
  endloop
endfacet
facet normal 0.0 0.0 1.0
  outer loop
    vertex 73.14753662238044 111.59769999825257 3.0
    vertex 73.76367929641042 106.91763174796388 3.0
    vertex 73.76367929641042 111.12491709602382 3.0
  endloop
endfacet
facet normal 0.0 0.0 1.0
  outer loop
    vertex 73.76367929641042 111.12491709602382 3.0
    vertex 73.76367929641042 106.91763174796388 3.0
    vertex 74.23646219863915 107.53377442199385 3.0
  endloop
endfacet
facet normal 0.0 0.0 1.0
  outer loop
    vertex 73.76367929641042 111.12491709602382 3.0
    vertex 74.23646219863915 107.53377442199385 3.0
    vertex 74.23646219863915 110.50877442199385 3.0
  endloop
endfacet
facet normal 0.0 0.0 1.0
  outer loop
    vertex 74.23646219863915 110.50877442199385 3.0
    vertex 74.23646219863915 107.53377442199385 3.0
    vertex 74.53366595559042 108.25128776281386 3.0
  endloop
endfacet
facet normal 0.0 0.0 1.0
  outer loop
    vertex 74.23646219863915 110.50877442199385 3.0
    vertex 74.53366595559042 108.25128776281386 3.0
    vertex 74.53366595559042 109.79126108117384 3.0
  endloop
endfacet
facet normal 0.0 0.0 1.0
  outer loop
    vertex 74.53366595559042 109.79126108117384 3.0
    vertex 74.53366595559042 108.25128776281386 3.0
    vertex 74.63503662238044 109.02127442199385 3.0
  endloop
endfacet
facet normal -1.035444135767392e-32 -1.0354441357673918e-32 1.0
  outer loop
    vertex 69.58948426156029 101.29386781168131 5.7
    vertex 68.68503662238044 109.02127442199385 5.7
    vertex 67.66003662238045 102.09307119171834 5.7
  endloop
endfacet
facet normal -1.035444135767392e-32 -1.0354441357673918e-32 1.0
  outer loop
    vertex 68.68503662238044 109.02127442199385 5.7
    vertex 69.58948426156029 101.29386781168131 5.7
    vertex 68.78640728917047 108.25128776281386 5.7
  endloop
endfacet
facet normal -1.035444135767392e-32 -1.0354441357673918e-32 1.0
  outer loop
    vertex 68.78640728917047 108.25128776281386 5.7
    vertex 69.58948426156029 101.29386781168131 5.7
    vertex 69.08361104612173 107.53377442199385 5.7
  endloop
endfacet
facet normal -1.035444135767392e-32 -1.0354441357673918e-32 1.0
  outer loop
    vertex 69.08361104612173 107.53377442199385 5.7
    vertex 69.58948426156029 101.29386781168131 5.7
    vertex 69.55639394835046 106.91763174796388 5.7
  endloop
endfacet
facet normal -1.035444135767392e-32 -1.0354441357673918e-32 1.0
  outer loop
    vertex 69.55639394835046 106.91763174796388 5.7
    vertex 69.58948426156029 101.29386781168131 5.7
    vertex 70.17253662238043 106.44484884573514 5.7
  endloop
endfacet
facet normal -1.035444135767392e-32 -1.0354441357673918e-32 1.0
  outer loop
    vertex 70.17253662238043 106.44484884573514 5.7
    vertex 69.58948426156029 101.29386781168131 5.7
    vertex 71.66003662238045 101.02127442199385 5.7
  endloop
endfacet
facet normal -1.035444135767392e-32 -1.0354441357673918e-32 1.0
  outer loop
    vertex 70.17253662238043 106.44484884573514 5.7
    vertex 71.66003662238045 101.02127442199385 5.7
    vertex 70.89004996320045 106.14764508878386 5.7
  endloop
endfacet
facet normal -1.035444135767392e-32 -1.0354441357673918e-32 1.0
  outer loop
    vertex 70.89004996320045 106.14764508878386 5.7
    vertex 71.66003662238045 101.02127442199385 5.7
    vertex 71.66003662238045 106.04627442199384 5.7
  endloop
endfacet
facet normal -1.035444135767392e-32 -1.0354441357673918e-32 1.0
  outer loop
    vertex 71.66003662238045 106.04627442199384 5.7
    vertex 71.66003662238045 101.02127442199385 5.7
    vertex 73.7305889832006 101.29386781168131 5.7
  endloop
endfacet
facet normal -1.035444135767392e-32 -1.0354441357673918e-32 1.0
  outer loop
    vertex 71.66003662238045 106.04627442199384 5.7
    vertex 73.7305889832006 101.29386781168131 5.7
    vertex 72.43002328156045 106.14764508878386 5.7
  endloop
endfacet
facet normal -1.035444135767392e-32 -1.0354441357673918e-32 1.0
  outer loop
    vertex 72.43002328156045 106.14764508878386 5.7
    vertex 73.7305889832006 101.29386781168131 5.7
    vertex 73.14753662238044 106.44484884573514 5.7
  endloop
endfacet
facet normal -1.035444135767392e-32 -1.0354441357673918e-32 1.0
  outer loop
    vertex 73.14753662238044 106.44484884573514 5.7
    vertex 73.7305889832006 101.29386781168131 5.7
    vertex 73.76367929641042 106.91763174796388 5.7
  endloop
endfacet
facet normal -1.035444135767392e-32 -1.0354441357673918e-32 1.0
  outer loop
    vertex 73.76367929641042 106.91763174796388 5.7
    vertex 73.7305889832006 101.29386781168131 5.7
    vertex 75.66003662238045 102.09307119171834 5.7
  endloop
endfacet
facet normal -1.035444135767392e-32 -1.0354441357673918e-32 1.0
  outer loop
    vertex 73.76367929641042 106.91763174796388 5.7
    vertex 75.66003662238045 102.09307119171834 5.7
    vertex 74.23646219863915 107.53377442199385 5.7
  endloop
endfacet
facet normal -1.035444135767392e-32 -1.0354441357673918e-32 1.0
  outer loop
    vertex 74.23646219863915 107.53377442199385 5.7
    vertex 75.66003662238045 102.09307119171834 5.7
    vertex 74.53366595559042 108.25128776281386 5.7
  endloop
endfacet
facet normal -1.035444135767392e-32 -1.0354441357673918e-32 1.0
  outer loop
    vertex 74.53366595559042 108.25128776281386 5.7
    vertex 75.66003662238045 102.09307119171834 5.7
    vertex 74.63503662238044 109.02127442199385 5.7
  endloop
endfacet
facet normal -1.035444135767392e-32 -1.0354441357673918e-32 1.0
  outer loop
    vertex 74.63503662238044 109.02127442199385 5.7
    vertex 75.66003662238045 102.09307119171834 5.7
    vertex 75.66003662238043 115.94947765226937 5.7
  endloop
endfacet
facet normal -1.035444135767392e-32 -1.0354441357673918e-32 1.0
  outer loop
    vertex 75.66003662238043 115.94947765226937 5.7
    vertex 75.66003662238045 102.09307119171834 5.7
    vertex 77.31689087187281 114.67812867148622 5.7
  endloop
endfacet
facet normal -1.035444135767392e-32 -1.0354441357673918e-32 1.0
  outer loop
    vertex 77.31689087187281 114.67812867148622 5.7
    vertex 75.66003662238045 102.09307119171834 5.7
    vertex 77.31689087187283 103.36442017250148 5.7
  endloop
endfacet
facet normal -1.035444135767392e-32 -1.0354441357673918e-32 1.0
  outer loop
    vertex 77.31689087187281 114.67812867148622 5.7
    vertex 77.31689087187283 103.36442017250148 5.7
    vertex 78.58823985265595 113.02127442199384 5.7
  endloop
endfacet
facet normal -1.035444135767392e-32 -1.0354441357673918e-32 1.0
  outer loop
    vertex 78.58823985265595 113.02127442199384 5.7
    vertex 77.31689087187283 103.36442017250148 5.7
    vertex 78.58823985265596 105.02127442199385 5.7
  endloop
endfacet
facet normal -1.035444135767392e-32 -1.0354441357673918e-32 1.0
  outer loop
    vertex 78.58823985265595 113.02127442199384 5.7
    vertex 78.58823985265596 105.02127442199385 5.7
    vertex 79.38744323269299 111.09182678281404 5.7
  endloop
endfacet
facet normal -1.035444135767392e-32 -1.0354441357673918e-32 1.0
  outer loop
    vertex 79.38744323269299 111.09182678281404 5.7
    vertex 78.58823985265596 105.02127442199385 5.7
    vertex 79.38744323269299 106.95072206117369 5.7
  endloop
endfacet
facet normal -1.035444135767392e-32 -1.0354441357673918e-32 1.0
  outer loop
    vertex 79.38744323269299 111.09182678281404 5.7
    vertex 79.38744323269299 106.95072206117369 5.7
    vertex 79.66003662238043 109.02127442199385 5.7
  endloop
endfacet
facet normal -1.035444135767392e-32 -1.0354441357673918e-32 1.0
  outer loop
    vertex 63.9326300120679 106.95072206117369 5.7
    vertex 63.9326300120679 111.09182678281401 5.7
    vertex 63.660036622380446 109.02127442199385 5.7
  endloop
endfacet
facet normal -1.035444135767392e-32 -1.0354441357673918e-32 1.0
  outer loop
    vertex 63.9326300120679 111.09182678281401 5.7
    vertex 63.9326300120679 106.95072206117369 5.7
    vertex 64.73183339210493 105.02127442199385 5.7
  endloop
endfacet
facet normal -1.035444135767392e-32 -1.0354441357673918e-32 1.0
  outer loop
    vertex 63.9326300120679 111.09182678281401 5.7
    vertex 64.73183339210493 105.02127442199385 5.7
    vertex 64.73183339210493 113.02127442199384 5.7
  endloop
endfacet
facet normal -1.035444135767392e-32 -1.0354441357673918e-32 1.0
  outer loop
    vertex 64.73183339210493 113.02127442199384 5.7
    vertex 64.73183339210493 105.02127442199385 5.7
    vertex 66.00318237288806 103.36442017250148 5.7
  endloop
endfacet
facet normal -1.035444135767392e-32 -1.0354441357673918e-32 1.0
  outer loop
    vertex 64.73183339210493 113.02127442199384 5.7
    vertex 66.00318237288806 103.36442017250148 5.7
    vertex 66.00318237288806 114.67812867148622 5.7
  endloop
endfacet
facet normal -1.035444135767392e-32 -1.0354441357673918e-32 1.0
  outer loop
    vertex 66.00318237288806 114.67812867148622 5.7
    vertex 66.00318237288806 103.36442017250148 5.7
    vertex 67.66003662238045 102.09307119171834 5.7
  endloop
endfacet
facet normal -1.035444135767392e-32 -1.0354441357673918e-32 1.0
  outer loop
    vertex 66.00318237288806 114.67812867148622 5.7
    vertex 67.66003662238045 102.09307119171834 5.7
    vertex 67.66003662238043 115.94947765226937 5.7
  endloop
endfacet
facet normal -1.035444135767392e-32 -1.0354441357673918e-32 1.0
  outer loop
    vertex 67.66003662238043 115.94947765226937 5.7
    vertex 67.66003662238045 102.09307119171834 5.7
    vertex 69.58948426156027 116.74868103230641 5.7
  endloop
endfacet
facet normal -1.035444135767392e-32 -1.0354441357673918e-32 1.0
  outer loop
    vertex 69.58948426156027 116.74868103230641 5.7
    vertex 67.66003662238045 102.09307119171834 5.7
    vertex 68.68503662238044 109.02127442199385 5.7
  endloop
endfacet
facet normal -1.035444135767392e-32 -1.0354441357673918e-32 1.0
  outer loop
    vertex 69.58948426156027 116.74868103230641 5.7
    vertex 68.68503662238044 109.02127442199385 5.7
    vertex 68.78640728917047 109.79126108117384 5.7
  endloop
endfacet
facet normal -1.035444135767392e-32 -1.0354441357673918e-32 1.0
  outer loop
    vertex 69.58948426156027 116.74868103230641 5.7
    vertex 68.78640728917047 109.79126108117384 5.7
    vertex 69.08361104612173 110.50877442199385 5.7
  endloop
endfacet
facet normal -1.035444135767392e-32 -1.0354441357673918e-32 1.0
  outer loop
    vertex 69.58948426156027 116.74868103230641 5.7
    vertex 69.08361104612173 110.50877442199385 5.7
    vertex 69.55639394835046 111.12491709602382 5.7
  endloop
endfacet
facet normal -1.035444135767392e-32 -1.0354441357673918e-32 1.0
  outer loop
    vertex 69.58948426156027 116.74868103230641 5.7
    vertex 69.55639394835046 111.12491709602382 5.7
    vertex 70.17253662238043 111.59769999825257 5.7
  endloop
endfacet
facet normal -1.035444135767392e-32 -1.0354441357673918e-32 1.0
  outer loop
    vertex 69.58948426156027 116.74868103230641 5.7
    vertex 70.17253662238043 111.59769999825257 5.7
    vertex 71.66003662238045 117.02127442199385 5.7
  endloop
endfacet
facet normal -1.035444135767392e-32 -1.0354441357673918e-32 1.0
  outer loop
    vertex 71.66003662238045 117.02127442199385 5.7
    vertex 70.17253662238043 111.59769999825257 5.7
    vertex 70.89004996320044 111.89490375520384 5.7
  endloop
endfacet
facet normal -1.035444135767392e-32 -1.0354441357673918e-32 1.0
  outer loop
    vertex 71.66003662238045 117.02127442199385 5.7
    vertex 70.89004996320044 111.89490375520384 5.7
    vertex 71.66003662238045 111.99627442199385 5.7
  endloop
endfacet
facet normal -1.035444135767392e-32 -1.0354441357673918e-32 1.0
  outer loop
    vertex 71.66003662238045 117.02127442199385 5.7
    vertex 71.66003662238045 111.99627442199385 5.7
    vertex 72.43002328156044 111.89490375520384 5.7
  endloop
endfacet
facet normal -1.035444135767392e-32 -1.0354441357673918e-32 1.0
  outer loop
    vertex 71.66003662238045 117.02127442199385 5.7
    vertex 72.43002328156044 111.89490375520384 5.7
    vertex 73.7305889832006 116.74868103230641 5.7
  endloop
endfacet
facet normal -1.035444135767392e-32 -1.0354441357673918e-32 1.0
  outer loop
    vertex 73.7305889832006 116.74868103230641 5.7
    vertex 72.43002328156044 111.89490375520384 5.7
    vertex 73.14753662238044 111.59769999825257 5.7
  endloop
endfacet
facet normal -1.035444135767392e-32 -1.0354441357673918e-32 1.0
  outer loop
    vertex 73.7305889832006 116.74868103230641 5.7
    vertex 73.14753662238044 111.59769999825257 5.7
    vertex 73.76367929641042 111.12491709602382 5.7
  endloop
endfacet
facet normal -1.035444135767392e-32 -1.0354441357673918e-32 1.0
  outer loop
    vertex 73.7305889832006 116.74868103230641 5.7
    vertex 73.76367929641042 111.12491709602382 5.7
    vertex 75.66003662238043 115.94947765226937 5.7
  endloop
endfacet
facet normal -1.035444135767392e-32 -1.0354441357673918e-32 1.0
  outer loop
    vertex 75.66003662238043 115.94947765226937 5.7
    vertex 73.76367929641042 111.12491709602382 5.7
    vertex 74.23646219863915 110.50877442199385 5.7
  endloop
endfacet
facet normal -1.035444135767392e-32 -1.0354441357673918e-32 1.0
  outer loop
    vertex 75.66003662238043 115.94947765226937 5.7
    vertex 74.23646219863915 110.50877442199385 5.7
    vertex 74.53366595559042 109.79126108117384 5.7
  endloop
endfacet
facet normal -1.035444135767392e-32 -1.0354441357673918e-32 1.0
  outer loop
    vertex 75.66003662238043 115.94947765226937 5.7
    vertex 74.53366595559042 109.79126108117384 5.7
    vertex 74.63503662238044 109.02127442199385 5.7
  endloop
endfacet
facet normal 0.9914448613738097 0.13052619222005749 1.1617383479445319e-32
  outer loop
    vertex 68.68503662238044 109.02127442199385 3.0
    vertex 68.78640728917047 108.25128776281386 5.7
    vertex 68.78640728917047 108.25128776281386 3.0
  endloop
endfacet
facet normal 0.9914448613738097 0.13052619222005749 1.1617383479445319e-32
  outer loop
    vertex 68.78640728917047 108.25128776281386 5.7
    vertex 68.68503662238044 109.02127442199385 3.0
    vertex 68.68503662238044 109.02127442199385 5.7
  endloop
endfacet
facet normal 0.38268343236509633 -0.9238795325112842 -5.603783281965522e-33
  outer loop
    vertex 70.89004996320044 111.89490375520384 5.7
    vertex 70.17253662238043 111.59769999825257 3.0
    vertex 70.89004996320044 111.89490375520384 3.0
  endloop
endfacet
facet normal 0.38268343236509633 -0.9238795325112842 -5.603783281965522e-33
  outer loop
    vertex 70.17253662238043 111.59769999825257 3.0
    vertex 70.89004996320044 111.89490375520384 5.7
    vertex 70.17253662238043 111.59769999825257 5.7
  endloop
endfacet
facet normal 0.13052619222004133 -0.9914448613738117 -8.914331873479387e-33
  outer loop
    vertex 71.66003662238045 111.99627442199385 5.7
    vertex 70.89004996320044 111.89490375520384 3.0
    vertex 71.66003662238045 111.99627442199385 3.0
  endloop
endfacet
facet normal 0.13052619222004133 -0.9914448613738117 -8.914331873479387e-33
  outer loop
    vertex 70.89004996320044 111.89490375520384 3.0
    vertex 71.66003662238045 111.99627442199385 5.7
    vertex 70.89004996320044 111.89490375520384 5.7
  endloop
endfacet
facet normal 0.6087614290087304 -0.7933533402912278 -1.9113461204755623e-33
  outer loop
    vertex 70.17253662238043 111.59769999825257 5.7
    vertex 69.55639394835046 111.12491709602382 3.0
    vertex 70.17253662238043 111.59769999825257 3.0
  endloop
endfacet
facet normal 0.6087614290087304 -0.7933533402912278 -1.9113461204755623e-33
  outer loop
    vertex 69.55639394835046 111.12491709602382 3.0
    vertex 70.17253662238043 111.59769999825257 5.7
    vertex 69.55639394835046 111.12491709602382 5.7
  endloop
endfacet
facet normal -0.7933533402912293 -0.6087614290087282 -1.4518115155444904e-32
  outer loop
    vertex 73.76367929641042 111.12491709602382 5.7
    vertex 74.23646219863915 110.50877442199385 3.0
    vertex 74.23646219863915 110.50877442199385 5.7
  endloop
endfacet
facet normal -0.7933533402912293 -0.6087614290087282 -1.4518115155444904e-32
  outer loop
    vertex 74.23646219863915 110.50877442199385 3.0
    vertex 73.76367929641042 111.12491709602382 5.7
    vertex 73.76367929641042 111.12491709602382 3.0
  endloop
endfacet
facet normal -0.9238795325112913 -0.38268343236507874 -1.3528729599920942e-32
  outer loop
    vertex 74.23646219863915 110.50877442199385 5.7
    vertex 74.53366595559042 109.79126108117384 3.0
    vertex 74.53366595559042 109.79126108117384 5.7
  endloop
endfacet
facet normal -0.9238795325112913 -0.38268343236507874 -1.3528729599920942e-32
  outer loop
    vertex 74.53366595559042 109.79126108117384 3.0
    vertex 74.23646219863915 110.50877442199385 5.7
    vertex 74.23646219863915 110.50877442199385 3.0
  endloop
endfacet
facet normal 0.9238795325112913 -0.38268343236507874 5.603783281965781e-33
  outer loop
    vertex 69.08361104612173 110.50877442199385 3.0
    vertex 68.78640728917047 109.79126108117384 5.7
    vertex 68.78640728917047 109.79126108117384 3.0
  endloop
endfacet
facet normal 0.9238795325112913 -0.38268343236507874 5.603783281965781e-33
  outer loop
    vertex 68.78640728917047 109.79126108117384 5.7
    vertex 69.08361104612173 110.50877442199385 3.0
    vertex 69.08361104612173 110.50877442199385 5.7
  endloop
endfacet
facet normal -0.38268343236509117 -0.9238795325112863 -1.3528729599921016e-32
  outer loop
    vertex 73.14753662238044 111.59769999825257 5.7
    vertex 72.43002328156044 111.89490375520384 3.0
    vertex 73.14753662238044 111.59769999825257 3.0
  endloop
endfacet
facet normal -0.38268343236509117 -0.9238795325112863 -1.3528729599921016e-32
  outer loop
    vertex 72.43002328156044 111.89490375520384 3.0
    vertex 73.14753662238044 111.59769999825257 5.7
    vertex 72.43002328156044 111.89490375520384 5.7
  endloop
endfacet
facet normal 0.9914448613738097 -0.13052619222005749 8.914331873479201e-33
  outer loop
    vertex 68.78640728917047 109.79126108117384 3.0
    vertex 68.68503662238044 109.02127442199385 5.7
    vertex 68.68503662238044 109.02127442199385 3.0
  endloop
endfacet
facet normal 0.9914448613738097 -0.13052619222005749 8.914331873479201e-33
  outer loop
    vertex 68.68503662238044 109.02127442199385 5.7
    vertex 68.78640728917047 109.79126108117384 3.0
    vertex 68.78640728917047 109.79126108117384 5.7
  endloop
endfacet
facet normal -0.9914448613738097 -0.13052619222005749 -1.1617383479445319e-32
  outer loop
    vertex 74.53366595559042 109.79126108117384 5.7
    vertex 74.63503662238044 109.02127442199385 3.0
    vertex 74.63503662238044 109.02127442199385 5.7
  endloop
endfacet
facet normal -0.9914448613738097 -0.13052619222005749 -1.1617383479445319e-32
  outer loop
    vertex 74.63503662238044 109.02127442199385 3.0
    vertex 74.53366595559042 109.79126108117384 5.7
    vertex 74.53366595559042 109.79126108117384 3.0
  endloop
endfacet
facet normal -0.6087614290087304 -0.7933533402912278 -1.451811515544491e-32
  outer loop
    vertex 73.76367929641042 111.12491709602382 5.7
    vertex 73.14753662238044 111.59769999825257 3.0
    vertex 73.76367929641042 111.12491709602382 3.0
  endloop
endfacet
facet normal -0.6087614290087304 -0.7933533402912278 -1.451811515544491e-32
  outer loop
    vertex 73.14753662238044 111.59769999825257 3.0
    vertex 73.76367929641042 111.12491709602382 5.7
    vertex 73.14753662238044 111.59769999825257 5.7
  endloop
endfacet
facet normal 0.7933533402912293 -0.6087614290087282 1.911346120475605e-33
  outer loop
    vertex 69.55639394835046 111.12491709602382 3.0
    vertex 69.08361104612173 110.50877442199385 5.7
    vertex 69.08361104612173 110.50877442199385 3.0
  endloop
endfacet
facet normal 0.7933533402912293 -0.6087614290087282 1.911346120475605e-33
  outer loop
    vertex 69.08361104612173 110.50877442199385 5.7
    vertex 69.55639394835046 111.12491709602382 3.0
    vertex 69.55639394835046 111.12491709602382 5.7
  endloop
endfacet
facet normal -0.13052619222004322 -0.9914448613738116 -1.1617383479445192e-32
  outer loop
    vertex 72.43002328156044 111.89490375520384 5.7
    vertex 71.66003662238045 111.99627442199385 3.0
    vertex 72.43002328156044 111.89490375520384 3.0
  endloop
endfacet
facet normal -0.13052619222004322 -0.9914448613738116 -1.1617383479445192e-32
  outer loop
    vertex 71.66003662238045 111.99627442199385 3.0
    vertex 72.43002328156044 111.89490375520384 5.7
    vertex 71.66003662238045 111.99627442199385 5.7
  endloop
endfacet
endsolid Untitled-5e35a932
