solid nanoGuitarPedalMidi
facet normal 0.6087614290087178 -0.04646683655221053 -0.7919913860971557
  outer loop
    vertex 141.1400766946313 -16.10488425272124 -4.018079086243363
    vertex 141.55429025700434 -22.836141784107138 -3.3047664245606327
    vertex 141.14007669463123 -22.854757564204952 -3.6220580367488457
  endloop
endfacet
facet normal 0.6087614290087178 -0.04646683655221053 -0.7919913860971557
  outer loop
    vertex 141.55429025700434 -22.836141784107138 -3.3047664245606327
    vertex 141.1400766946313 -16.10488425272124 -4.018079086243363
    vertex 141.55429025700437 -16.08626847262339 -3.70078747405515
  endloop
endfacet
facet normal 1.0 -3.4192210050147346e-16 5.651264810581887e-16
  outer loop
    vertex 81.67929025700434 -23.35229109689704 -12.102133321059787
    vertex 81.67929025700431 -62.327958783887205 -0.24966656103461374
    vertex 81.67929025700431 -63.06917224198139 -12.883078207434512
  endloop
endfacet
facet normal 1.0 -3.4192210050147346e-16 5.651264810581887e-16
  outer loop
    vertex 81.67929025700431 -64.28681216442469 -0.6532671477003137
    vertex 81.67929025700431 -19.838585292060692 11.567826416417137
    vertex 81.67929025700431 -64.89221304442312 2.285012923105996
  endloop
endfacet
facet normal 1.0 -3.4192210050147346e-16 5.651264810581887e-16
  outer loop
    vertex 81.67929025700431 -19.838585292060692 11.567826416417137
    vertex 81.67929025700431 -64.28681216442469 -0.6532671477003137
    vertex 81.67929025700431 -62.327958783887205 -0.24966656103461374
  endloop
endfacet
facet normal 1.0 -3.4192210050147346e-16 5.651264810581887e-16
  outer loop
    vertex 81.67929025700431 -19.838585292060692 11.567826416417137
    vertex 81.67929025700431 -62.327958783887205 -0.24966656103461374
    vertex 81.67929025700434 -22.171464482869265 8.024145465612524
  endloop
endfacet
facet normal 1.0 -3.4192210050147346e-16 5.651264810581887e-16
  outer loop
    vertex 81.67929025700434 -22.171464482869265 8.024145465612524
    vertex 81.67929025700431 -62.327958783887205 -0.24966656103461374
    vertex 81.67929025700434 -23.35229109689704 -12.102133321059787
  endloop
endfacet
facet normal 1.0 -3.4192210050147346e-16 5.651264810581887e-16
  outer loop
    vertex 81.67929025700431 -19.838585292060692 11.567826416417137
    vertex 81.67929025700434 -22.171464482869265 8.024145465612524
    vertex 81.67929025700431 -19.23318441206246 8.629546345610795
  endloop
endfacet
facet normal -0.7933533402912457 -0.03565525773251926 -0.6077163647991971
  outer loop
    vertex 153.96850381937742 -22.85475756420487 -3.6220580367488684
    vertex 154.28634106457318 -16.1291448096798 -4.431581565836784
    vertex 154.28634106457318 -22.879018121163558 -4.035560516342239
  endloop
endfacet
facet normal -0.7933533402912457 -0.03565525773251926 -0.6077163647991971
  outer loop
    vertex 154.28634106457318 -16.1291448096798 -4.431581565836784
    vertex 153.96850381937742 -22.85475756420487 -3.6220580367488684
    vertex 153.96850381937742 -16.10488425272112 -4.018079086243417
  endloop
endfacet
facet normal 0.13052619222004144 -0.058069089753968586 -0.9897428423381918
  outer loop
    vertex 142.0366521667993 -16.074566104036116 -3.5013296282935444
    vertex 142.55429025700434 -22.820447955523242 -3.037277222033002
    vertex 142.03665216679926 -22.824439415519855 -3.105308578799024
  endloop
endfacet
facet normal 0.13052619222004144 -0.058069089753968586 -0.9897428423381918
  outer loop
    vertex 142.55429025700434 -22.820447955523242 -3.037277222033002
    vertex 142.0366521667993 -16.074566104036116 -3.5013296282935444
    vertex 142.55429025700437 -16.070574644039503 -3.433298271527522
  endloop
endfacet
facet normal -1.0 0.0 0.0
  outer loop
    vertex 154.5542902570043 -22.93758828680395 -5.033843810651447
    vertex 154.5542902570043 -16.602417785413017 -12.498154370554559
    vertex 154.5542902570043 -23.35229109689681 -12.102133321060032
  endloop
endfacet
facet normal -1.0 0.0 0.0
  outer loop
    vertex 154.5542902570043 -16.602417785413017 -12.498154370554559
    vertex 154.5542902570043 -22.93758828680395 -5.033843810651447
    vertex 154.5542902570043 -16.1877149753202 -5.429864860145999
  endloop
endfacet
facet normal -2.7494673204841087e-15 -0.058570165640382046 -0.9982832943092148
  outer loop
    vertex 142.55429025700437 -16.070574644039503 -3.433298271527522
    vertex 152.5542902570043 -22.820447955523168 -3.0372772220330218
    vertex 142.55429025700434 -22.820447955523242 -3.037277222033002
  endloop
endfacet
facet normal -2.7494673204841087e-15 -0.058570165640382046 -0.9982832943092148
  outer loop
    vertex 152.5542902570043 -22.820447955523168 -3.0372772220330218
    vertex 142.55429025700437 -16.070574644039503 -3.433298271527522
    vertex 152.5542902570043 -16.070574644039446 -3.4332982715275673
  endloop
endfacet
facet normal -0.9238795325112895 -0.02241383202145647 -0.38202647753897256
  outer loop
    vertex 154.28634106457318 -22.879018121163558 -4.035560516342239
    vertex 154.48614190958244 -16.1573968266351 -4.913115402196177
    vertex 154.48614190958244 -22.90727013811885 -4.517094352701634
  endloop
endfacet
facet normal -0.9238795325112895 -0.02241383202145647 -0.38202647753897256
  outer loop
    vertex 154.48614190958244 -16.1573968266351 -4.913115402196177
    vertex 154.28634106457318 -22.879018121163558 -4.035560516342239
    vertex 154.28634106457318 -16.1291448096798 -4.431581565836784
  endloop
endfacet
facet normal -2.994364353711701e-06 -0.2017752437973363 0.9794318511165335
  outer loop
    vertex 217.42929025700408 -67.15849215264893 1.8201048162331528
    vertex 77.67929025700431 -67.13114544712288 1.8237050783164448
    vertex 77.67929025700431 -67.15849215264893 1.8201048162331528
  endloop
endfacet
facet normal -2.994364353711701e-06 -0.2017752437973363 0.9794318511165335
  outer loop
    vertex 77.67929025700431 -67.13114544712288 1.8237050783164448
    vertex 217.42929025700408 -67.15849215264893 1.8201048162331528
    vertex 77.67929025700431 -66.85106642496068 1.8814123364402762
  endloop
endfacet
facet normal -2.994364353711701e-06 -0.2017752437973363 0.9794318511165335
  outer loop
    vertex 77.67929025700431 -66.85106642496068 1.8814123364402762
    vertex 217.42929025700408 -67.15849215264893 1.8201048162331528
    vertex 81.67929025700431 -64.89221304442312 2.285012923105996
  endloop
endfacet
facet normal -2.994364353711701e-06 -0.2017752437973363 0.9794318511165335
  outer loop
    vertex 77.67929025700431 -66.85106642496068 1.8814123364402762
    vertex 81.67929025700431 -64.89221304442312 2.285012923105996
    vertex 77.67929025700431 -17.879731911523493 11.97142700308277
  endloop
endfacet
facet normal -2.994364353711701e-06 -0.2017752437973363 0.9794318511165335
  outer loop
    vertex 81.67929025700431 -64.89221304442312 2.285012923105996
    vertex 217.42929025700408 -67.15849215264893 1.8201048162331528
    vertex 213.42929025700437 -64.89221304442312 2.285012923105996
  endloop
endfacet
facet normal -2.994364353711701e-06 -0.2017752437973363 0.9794318511165335
  outer loop
    vertex 213.42929025700437 -64.89221304442312 2.285012923105996
    vertex 217.42929025700408 -67.15849215264893 1.8201048162331528
    vertex 213.42929025700437 -19.838585292060692 11.567826416417137
  endloop
endfacet
facet normal -2.994364353711701e-06 -0.2017752437973363 0.9794318511165335
  outer loop
    vertex 213.42929025700437 -19.838585292060692 11.567826416417137
    vertex 217.42929025700408 -67.15849215264893 1.8201048162331528
    vertex 217.42929025700394 -17.879731911523493 11.97142700308277
  endloop
endfacet
facet normal -2.994364353711701e-06 -0.2017752437973363 0.9794318511165335
  outer loop
    vertex 217.42929025700394 -17.879731911523493 11.97142700308277
    vertex 217.42929025700408 -67.15849215264893 1.8201048162331528
    vertex 217.42929025700437 -31.02312061041044 9.263373688653218
  endloop
endfacet
facet normal -2.994364353711701e-06 -0.2017752437973363 0.9794318511165335
  outer loop
    vertex 217.42929025700437 -31.02312061041044 9.263373688653218
    vertex 217.42929025700408 -67.15849215264893 1.8201048162331528
    vertex 217.42929025700437 -38.858534132560244 7.648971341990454
  endloop
endfacet
facet normal -2.994364353711701e-06 -0.2017752437973363 0.9794318511165335
  outer loop
    vertex 77.67929025700431 -17.879731911523493 11.97142700308277
    vertex 81.67929025700431 -19.838585292060692 11.567826416417137
    vertex 217.42929025700394 -17.879731911523493 11.97142700308277
  endloop
endfacet
facet normal -2.994364353711701e-06 -0.2017752437973363 0.9794318511165335
  outer loop
    vertex 81.67929025700431 -19.838585292060692 11.567826416417137
    vertex 77.67929025700431 -17.879731911523493 11.97142700308277
    vertex 81.67929025700431 -64.89221304442312 2.285012923105996
  endloop
endfacet
facet normal -2.994364353711701e-06 -0.2017752437973363 0.9794318511165335
  outer loop
    vertex 217.42929025700394 -17.879731911523493 11.97142700308277
    vertex 81.67929025700431 -19.838585292060692 11.567826416417137
    vertex 213.42929025700437 -19.838585292060692 11.567826416417137
  endloop
endfacet
facet normal -0.9914448613738077 -0.007644940698741491 -0.13030211716309179
  outer loop
    vertex 154.48614190958244 -22.90727013811885 -4.517094352701634
    vertex 154.5542902570043 -16.1877149753202 -5.429864860145999
    vertex 154.5542902570043 -22.93758828680395 -5.033843810651447
  endloop
endfacet
facet normal -0.9914448613738077 -0.007644940698741491 -0.13030211716309179
  outer loop
    vertex 154.5542902570043 -16.1877149753202 -5.429864860145999
    vertex 154.48614190958244 -22.90727013811885 -4.517094352701634
    vertex 154.48614190958244 -16.1573968266351 -4.913115402196177
  endloop
endfacet
facet normal 0.9238795325112745 -0.022413832021460037 -0.3820264775390089
  outer loop
    vertex 140.6224386044262 -16.1573968266352 -4.913115402196124
    vertex 140.82223944943547 -22.879018121163636 -4.035560516342214
    vertex 140.62243860442615 -22.907270138118935 -4.517094352701606
  endloop
endfacet
facet normal 0.9238795325112745 -0.022413832021460037 -0.3820264775390089
  outer loop
    vertex 140.82223944943547 -22.879018121163636 -4.035560516342214
    vertex 140.6224386044262 -16.1573968266352 -4.913115402196124
    vertex 140.8222394494355 -16.129144809679925 -4.431581565836728
  endloop
endfacet
facet normal 1.3158441054048339e-15 -0.019658994891356432 0.9998067432858522
  outer loop
    vertex 81.67929025700431 -63.06917224198139 -12.883078207434512
    vertex 138.5042902570043 -54.34630013875826 -12.711562162692005
    vertex 81.67929025700434 -23.35229109689704 -12.102133321059787
  endloop
endfacet
facet normal 1.3158441054048339e-15 -0.019658994891356432 0.9998067432858522
  outer loop
    vertex 138.5042902570043 -54.34630013875826 -12.711562162692005
    vertex 81.67929025700431 -63.06917224198139 -12.883078207434512
    vertex 213.42929025700428 -63.06917224198136 -12.883078207434538
  endloop
endfacet
facet normal 1.3158441054048339e-15 -0.019658994891356432 0.9998067432858522
  outer loop
    vertex 138.5042902570043 -54.34630013875826 -12.711562162692005
    vertex 213.42929025700428 -63.06917224198136 -12.883078207434538
    vertex 156.6042902570043 -54.34630013875826 -12.711562162692005
  endloop
endfacet
facet normal 1.3158441054048339e-15 -0.019658994891356432 0.9998067432858522
  outer loop
    vertex 156.6042902570043 -54.34630013875826 -12.711562162692005
    vertex 213.42929025700428 -63.06917224198136 -12.883078207434538
    vertex 156.6042902570043 -23.352291096896835 -12.102133321060018
  endloop
endfacet
facet normal 1.3158441054048339e-15 -0.019658994891356432 0.9998067432858522
  outer loop
    vertex 156.6042902570043 -23.352291096896835 -12.102133321060018
    vertex 213.42929025700428 -63.06917224198136 -12.883078207434538
    vertex 213.42929025700428 -23.352291096896383 -12.102133321060109
  endloop
endfacet
facet normal 1.3158441054048339e-15 -0.019658994891356432 0.9998067432858522
  outer loop
    vertex 138.5042902570043 -23.352291096896835 -12.102133321060018
    vertex 81.67929025700434 -23.35229109689704 -12.102133321059787
    vertex 138.5042902570043 -54.34630013875826 -12.711562162692005
  endloop
endfacet
facet normal 0.7933533402912473 -0.035655257732519444 -0.6077163647991949
  outer loop
    vertex 140.8222394494355 -16.129144809679925 -4.431581565836728
    vertex 141.14007669463123 -22.854757564204952 -3.6220580367488457
    vertex 140.82223944943547 -22.879018121163636 -4.035560516342214
  endloop
endfacet
facet normal 0.7933533402912473 -0.035655257732519444 -0.6077163647991949
  outer loop
    vertex 141.14007669463123 -22.854757564204952 -3.6220580367488457
    vertex 140.8222394494355 -16.129144809679925 -4.431581565836728
    vertex 141.1400766946313 -16.10488425272124 -4.018079086243363
  endloop
endfacet
facet normal -0.38268343236509395 -0.054111777250947346 -0.9222935032602229
  outer loop
    vertex 153.5542902570043 -16.08626847262334 -3.7007874740552036
    vertex 153.07192834720937 -22.824439415519794 -3.1053085787990495
    vertex 153.07192834720934 -16.074566104036062 -3.5013296282935977
  endloop
endfacet
facet normal -0.38268343236509395 -0.054111777250947346 -0.9222935032602229
  outer loop
    vertex 153.07192834720937 -22.824439415519794 -3.1053085787990495
    vertex 153.5542902570043 -16.08626847262334 -3.7007874740552036
    vertex 153.5542902570043 -22.83614178410707 -3.304766424560661
  endloop
endfacet
facet normal 1.0 -3.175057223148012e-15 6.689432961082083e-15
  outer loop
    vertex 217.42929025700437 -16.71955811669375 -14.494720959172966
    vertex 217.42929025700408 -68.9234598746956 -0.45739114875352704
    vertex 217.42929025700425 -69.74704245574407 -14.494720959172966
  endloop
endfacet
facet normal 1.0 -3.175057223148012e-15 6.689432961082083e-15
  outer loop
    vertex 217.42929025700408 -68.9234598746956 -0.45739114875352704
    vertex 217.42929025700437 -16.71955811669375 -14.494720959172966
    vertex 217.42929025700408 -68.84575409091703 0.1328428779650473
  endloop
endfacet
facet normal 1.0 -3.175057223148012e-15 6.689432961082083e-15
  outer loop
    vertex 217.42929025700408 -68.84575409091703 0.1328428779650473
    vertex 217.42929025700437 -16.71955811669375 -14.494720959172966
    vertex 217.42929025700408 -68.60737682599233 0.7083365039076864
  endloop
endfacet
facet normal 1.0 -3.175057223148012e-15 6.689432961082083e-15
  outer loop
    vertex 217.42929025700408 -68.60737682599233 0.7083365039076864
    vertex 217.42929025700437 -16.71955811669375 -14.494720959172966
    vertex 217.42929025700408 -68.33327915067676 1.065547549015725
  endloop
endfacet
facet normal 1.0 -3.175057223148012e-15 6.689432961082083e-15
  outer loop
    vertex 217.42929025700408 -68.33327915067676 1.065547549015725
    vertex 217.42929025700437 -16.71955811669375 -14.494720959172966
    vertex 217.42929025700408 -68.22817335867234 1.2025240839884557
  endloop
endfacet
facet normal 1.0 -3.175057223148012e-15 6.689432961082083e-15
  outer loop
    vertex 217.42929025700408 -68.22817335867234 1.2025240839884557
    vertex 217.42929025700437 -16.71955811669375 -14.494720959172966
    vertex 217.42929025700408 -67.73398577859156 1.5817275513084448
  endloop
endfacet
facet normal 1.0 -3.175057223148012e-15 6.689432961082083e-15
  outer loop
    vertex 217.42929025700408 -67.73398577859156 1.5817275513084448
    vertex 217.42929025700437 -16.71955811669375 -14.494720959172966
    vertex 217.42929025700408 -67.15849215264893 1.8201048162331528
  endloop
endfacet
facet normal 1.0 -3.175057223148012e-15 6.689432961082083e-15
  outer loop
    vertex 217.42929025700408 -67.15849215264893 1.8201048162331528
    vertex 217.42929025700437 -16.71955811669375 -14.494720959172966
    vertex 217.42929025700437 -38.858534132560244 7.648971341990454
  endloop
endfacet
facet normal 1.0 -3.175057223148012e-15 6.689432961082083e-15
  outer loop
    vertex 217.42929025700437 -38.858534132560244 7.648971341990454
    vertex 217.42929025700437 -16.71955811669375 -14.494720959172966
    vertex 217.42929025700437 -31.02312061041044 9.263373688653218
  endloop
endfacet
facet normal 1.0 -3.175057223148012e-15 6.689432961082083e-15
  outer loop
    vertex 217.42929025700437 -31.02312061041044 9.263373688653218
    vertex 217.42929025700437 -16.71955811669375 -14.494720959172966
    vertex 217.42929025700394 -17.879731911523493 11.97142700308277
  endloop
endfacet
facet normal 1.0 -3.175057223148012e-15 6.689432961082083e-15
  outer loop
    vertex 217.42929025700394 -17.879731911523493 11.97142700308277
    vertex 217.42929025700437 -16.71955811669375 -14.494720959172966
    vertex 217.42929025700394 -17.35899099357702 12.009140211163576
  endloop
endfacet
facet normal 1.0 -3.175057223148012e-15 6.689432961082083e-15
  outer loop
    vertex 217.42929025700394 -17.35899099357702 12.009140211163576
    vertex 217.42929025700437 -16.71955811669375 -14.494720959172966
    vertex 217.42929025700394 -16.84623299562381 11.91079070571253
  endloop
endfacet
facet normal 1.0 -3.175057223148012e-15 6.689432961082083e-15
  outer loop
    vertex 217.42929025700394 -16.84623299562381 11.91079070571253
    vertex 217.42929025700437 -16.71955811669375 -14.494720959172966
    vertex 217.42929025700394 -16.376401527851662 11.683080842995675
  endloop
endfacet
facet normal 1.0 -3.175057223148012e-15 6.689432961082083e-15
  outer loop
    vertex 217.42929025700394 -16.376401527851662 11.683080842995675
    vertex 217.42929025700437 -16.71955811669375 -14.494720959172966
    vertex 217.42929025700437 -15.315477650987154 9.436747518942285
  endloop
endfacet
facet normal 1.0 -3.175057223148012e-15 6.689432961082083e-15
  outer loop
    vertex 217.42929025700394 -16.376401527851662 11.683080842995675
    vertex 217.42929025700437 -15.315477650987154 9.436747518942285
    vertex 217.42929025700394 -15.981514828356053 11.341528673848828
  endloop
endfacet
facet normal 1.0 -3.175057223148012e-15 6.689432961082083e-15
  outer loop
    vertex 217.42929025700394 -15.981514828356053 11.341528673848828
    vertex 217.42929025700437 -15.315477650987154 9.436747518942285
    vertex 217.42929025700394 -15.688483773126482 10.909410414157694
  endloop
endfacet
facet normal 1.0 -3.175057223148012e-15 6.689432961082083e-15
  outer loop
    vertex 217.42929025700394 -15.688483773126482 10.909410414157694
    vertex 217.42929025700437 -15.315477650987154 9.436747518942285
    vertex 217.42929025700394 -15.517277944320108 10.416174209211034
  endloop
endfacet
facet normal -0.13052619222005202 -0.058069089753972 -0.98974284233819
  outer loop
    vertex 153.07192834720934 -16.074566104036062 -3.5013296282935977
    vertex 152.5542902570043 -22.820447955523168 -3.0372772220330218
    vertex 152.5542902570043 -16.070574644039446 -3.4332982715275673
  endloop
endfacet
facet normal -0.13052619222005202 -0.058069089753972 -0.98974284233819
  outer loop
    vertex 152.5542902570043 -22.820447955523168 -3.0372772220330218
    vertex 153.07192834720934 -16.074566104036062 -3.5013296282935977
    vertex 153.07192834720937 -22.824439415519794 -3.1053085787990495
  endloop
endfacet
facet normal 0.9914448613738136 -0.007644940698741753 -0.1303021171630477
  outer loop
    vertex 140.55429025700437 -16.187714975320283 -5.4298648601459565
    vertex 140.62243860442615 -22.907270138118935 -4.517094352701606
    vertex 140.55429025700434 -22.93758828680402 -5.0338438106514305
  endloop
endfacet
facet normal 0.9914448613738136 -0.007644940698741753 -0.1303021171630477
  outer loop
    vertex 140.62243860442615 -22.907270138118935 -4.517094352701606
    vertex 140.55429025700437 -16.187714975320283 -5.4298648601459565
    vertex 140.6224386044262 -16.1573968266352 -4.913115402196124
  endloop
endfacet
facet normal 0.3826834323650928 -0.0541117772509451 -0.9222935032602235
  outer loop
    vertex 141.55429025700437 -16.08626847262339 -3.70078747405515
    vertex 142.03665216679926 -22.824439415519855 -3.105308578799024
    vertex 141.55429025700434 -22.836141784107138 -3.3047664245606327
  endloop
endfacet
facet normal 0.3826834323650928 -0.0541117772509451 -0.9222935032602235
  outer loop
    vertex 142.03665216679926 -22.824439415519855 -3.105308578799024
    vertex 141.55429025700437 -16.08626847262339 -3.70078747405515
    vertex 142.0366521667993 -16.074566104036116 -3.5013296282935444
  endloop
endfacet
facet normal -4.106147000889719e-19 1.9428902930940235e-16 -1.0
  outer loop
    vertex 217.42929025700437 -16.71955811669375 -14.494720959172966
    vertex 77.67929025700431 -69.74704245574407 -14.494720959172966
    vertex 77.67929025700431 -16.71955811669375 -14.494720959172966
  endloop
endfacet
facet normal -4.106147000889719e-19 1.9428902930940235e-16 -1.0
  outer loop
    vertex 77.67929025700431 -69.74704245574407 -14.494720959172966
    vertex 217.42929025700437 -16.71955811669375 -14.494720959172966
    vertex 217.42929025700425 -69.74704245574407 -14.494720959172966
  endloop
endfacet
facet normal 1.0 -7.034792393842576e-15 -5.970626342409218e-15
  outer loop
    vertex 140.55429025700434 -16.602417785413085 -12.49815437055454
    vertex 140.55429025700434 -22.93758828680402 -5.0338438106514305
    vertex 140.55429025700428 -23.352291096896863 -12.102133321060004
  endloop
endfacet
facet normal 1.0 -7.034792393842576e-15 -5.970626342409218e-15
  outer loop
    vertex 140.55429025700434 -22.93758828680402 -5.0338438106514305
    vertex 140.55429025700434 -16.602417785413085 -12.49815437055454
    vertex 140.55429025700437 -16.187714975320283 -5.4298648601459565
  endloop
endfacet
facet normal -1.0 -3.0351827962002485e-16 3.361385388175609e-15
  outer loop
    vertex 213.42929025700437 -19.838585292060692 11.567826416417137
    vertex 213.42929025700437 -64.28681216442469 -0.6532671477003137
    vertex 213.42929025700437 -64.89221304442312 2.285012923105996
  endloop
endfacet
facet normal -1.0 -3.0351827962002485e-16 3.361385388175609e-15
  outer loop
    vertex 213.42929025700437 -64.28681216442469 -0.6532671477003137
    vertex 213.42929025700437 -19.838585292060692 11.567826416417137
    vertex 213.42929025700437 -62.327958783887205 -0.24966656103461374
  endloop
endfacet
facet normal -1.0 -3.0351827962002485e-16 3.361385388175609e-15
  outer loop
    vertex 213.42929025700437 -62.327958783887205 -0.24966656103461374
    vertex 213.42929025700437 -19.838585292060692 11.567826416417137
    vertex 213.42929025700437 -22.17146448286842 8.024145465612326
  endloop
endfacet
facet normal -1.0 -3.0351827962002485e-16 3.361385388175609e-15
  outer loop
    vertex 213.42929025700437 -62.327958783887205 -0.24966656103461374
    vertex 213.42929025700437 -22.17146448286842 8.024145465612326
    vertex 213.42929025700428 -23.352291096896383 -12.102133321060109
  endloop
endfacet
facet normal -1.0 -3.0351827962002485e-16 3.361385388175609e-15
  outer loop
    vertex 213.42929025700437 -22.17146448286842 8.024145465612326
    vertex 213.42929025700437 -19.838585292060692 11.567826416417137
    vertex 213.42929025700437 -19.23318441206246 8.629546345610795
  endloop
endfacet
facet normal -1.0 -3.0351827962002485e-16 3.361385388175609e-15
  outer loop
    vertex 213.42929025700428 -23.352291096896383 -12.102133321060109
    vertex 213.42929025700428 -63.06917224198136 -12.883078207434538
    vertex 213.42929025700437 -62.327958783887205 -0.24966656103461374
  endloop
endfacet
facet normal -0.6087614290087169 -0.04646683655221142 -0.7919913860971564
  outer loop
    vertex 153.96850381937742 -16.10488425272112 -4.018079086243417
    vertex 153.5542902570043 -22.83614178410707 -3.304766424560661
    vertex 153.5542902570043 -16.08626847262334 -3.7007874740552036
  endloop
endfacet
facet normal -0.6087614290087169 -0.04646683655221142 -0.7919913860971564
  outer loop
    vertex 153.5542902570043 -22.83614178410707 -3.304766424560661
    vertex 153.96850381937742 -16.10488425272112 -4.018079086243417
    vertex 153.96850381937742 -22.85475756420487 -3.6220580367488684
  endloop
endfacet
facet normal 0.0 -0.20180029333284946 0.979426690268739
  outer loop
    vertex 213.42929025700437 -64.28681216442469 -0.6532671477003137
    vertex 81.67929025700431 -62.327958783887205 -0.24966656103461374
    vertex 81.67929025700431 -64.28681216442469 -0.6532671477003137
  endloop
endfacet
facet normal 0.0 -0.20180029333284946 0.979426690268739
  outer loop
    vertex 81.67929025700431 -62.327958783887205 -0.24966656103461374
    vertex 213.42929025700437 -64.28681216442469 -0.6532671477003137
    vertex 213.42929025700437 -62.327958783887205 -0.24966656103461374
  endloop
endfacet
facet normal 2.8551172879859126e-06 -0.9982849554147064 0.05854184643915892
  outer loop
    vertex 217.42929025700408 -68.9234598746956 -0.45739114875352704
    vertex 77.67929025700431 -69.74704245574407 -14.494720959172966
    vertex 217.42929025700425 -69.74704245574407 -14.494720959172966
  endloop
endfacet
facet normal 2.8551172879859126e-06 -0.9982849554147064 0.05854184643915892
  outer loop
    vertex 77.67929025700431 -69.74704245574407 -14.494720959172966
    vertex 217.42929025700408 -68.9234598746956 -0.45739114875352704
    vertex 77.67929025700431 -68.9270601367789 -0.5187548388438525
  endloop
endfacet
facet normal 2.8551172879859126e-06 -0.9982849554147064 0.05854184643915892
  outer loop
    vertex 77.67929025700431 -68.9270601367789 -0.5187548388438525
    vertex 217.42929025700408 -68.9234598746956 -0.45739114875352704
    vertex 77.67929025700431 -68.9270601367789 -0.4847378542796527
  endloop
endfacet
facet normal 2.8551172879859126e-06 -0.9982849554147064 0.05854184643915892
  outer loop
    vertex 77.67929025700431 -68.9270601367789 -0.4847378542796527
    vertex 217.42929025700408 -68.9234598746956 -0.45739114875352704
    vertex 77.67929025700431 -68.9234598746956 -0.45739114875352704
  endloop
endfacet
facet normal -3.540139779985097e-33 0.9794266902687403 0.20180029333284197
  outer loop
    vertex 81.67929025700431 -64.89221304442312 2.285012923105996
    vertex 213.42929025700437 -64.28681216442469 -0.6532671477003137
    vertex 81.67929025700431 -64.28681216442469 -0.6532671477003137
  endloop
endfacet
facet normal -3.540139779985097e-33 0.9794266902687403 0.20180029333284197
  outer loop
    vertex 213.42929025700437 -64.28681216442469 -0.6532671477003137
    vertex 81.67929025700431 -64.89221304442312 2.285012923105996
    vertex 213.42929025700437 -64.89221304442312 2.285012923105996
  endloop
endfacet
facet normal -4.137068412609626e-20 0.9794266902687174 0.20180029333295318
  outer loop
    vertex 77.67929025700431 -15.517277944320108 10.416174209211034
    vertex 217.42929025700437 -15.315477650987154 9.436747518942285
    vertex 77.67929025700431 -15.315477650987154 9.436747518942285
  endloop
endfacet
facet normal -4.137068412609626e-20 0.9794266902687174 0.20180029333295318
  outer loop
    vertex 217.42929025700437 -15.315477650987154 9.436747518942285
    vertex 77.67929025700431 -15.517277944320108 10.416174209211034
    vertex 217.42929025700394 -15.517277944320108 10.416174209211034
  endloop
endfacet
facet normal 1.4634847917510881e-32 -0.9794266902687624 -0.20180029333273458
  outer loop
    vertex 213.42929025700437 -19.838585292060692 11.567826416417137
    vertex 81.67929025700431 -19.23318441206246 8.629546345610795
    vertex 213.42929025700437 -19.23318441206246 8.629546345610795
  endloop
endfacet
facet normal 1.4634847917510881e-32 -0.9794266902687624 -0.20180029333273458
  outer loop
    vertex 81.67929025700431 -19.23318441206246 8.629546345610795
    vertex 213.42929025700437 -19.838585292060692 11.567826416417137
    vertex 81.67929025700431 -19.838585292060692 11.567826416417137
  endloop
endfacet
facet normal 3.2187106293212194e-47 0.9982832943092148 -0.05857016564038153
  outer loop
    vertex 77.67929025700431 -16.71955811669375 -14.494720959172966
    vertex 140.55429025700434 -16.602417785413085 -12.49815437055454
    vertex 217.42929025700437 -16.71955811669375 -14.494720959172966
  endloop
endfacet
facet normal 3.2187106293212194e-47 0.9982832943092148 -0.05857016564038153
  outer loop
    vertex 140.55429025700434 -16.602417785413085 -12.49815437055454
    vertex 77.67929025700431 -16.71955811669375 -14.494720959172966
    vertex 77.67929025700431 -15.315477650987154 9.436747518942285
  endloop
endfacet
facet normal 3.2187106293212194e-47 0.9982832943092148 -0.05857016564038153
  outer loop
    vertex 217.42929025700437 -16.71955811669375 -14.494720959172966
    vertex 140.55429025700434 -16.602417785413085 -12.49815437055454
    vertex 154.5542902570043 -16.602417785413017 -12.498154370554559
  endloop
endfacet
facet normal 3.2187106293212194e-47 0.9982832943092148 -0.05857016564038153
  outer loop
    vertex 140.55429025700434 -16.602417785413085 -12.49815437055454
    vertex 77.67929025700431 -15.315477650987154 9.436747518942285
    vertex 140.55429025700437 -16.187714975320283 -5.4298648601459565
  endloop
endfacet
facet normal 3.2187106293212194e-47 0.9982832943092148 -0.05857016564038153
  outer loop
    vertex 140.55429025700437 -16.187714975320283 -5.4298648601459565
    vertex 77.67929025700431 -15.315477650987154 9.436747518942285
    vertex 140.6224386044262 -16.1573968266352 -4.913115402196124
  endloop
endfacet
facet normal 3.2187106293212194e-47 0.9982832943092148 -0.05857016564038153
  outer loop
    vertex 140.6224386044262 -16.1573968266352 -4.913115402196124
    vertex 77.67929025700431 -15.315477650987154 9.436747518942285
    vertex 140.8222394494355 -16.129144809679925 -4.431581565836728
  endloop
endfacet
facet normal 3.2187106293212194e-47 0.9982832943092148 -0.05857016564038153
  outer loop
    vertex 140.8222394494355 -16.129144809679925 -4.431581565836728
    vertex 77.67929025700431 -15.315477650987154 9.436747518942285
    vertex 141.1400766946313 -16.10488425272124 -4.018079086243363
  endloop
endfacet
facet normal 3.2187106293212194e-47 0.9982832943092148 -0.05857016564038153
  outer loop
    vertex 141.1400766946313 -16.10488425272124 -4.018079086243363
    vertex 77.67929025700431 -15.315477650987154 9.436747518942285
    vertex 141.55429025700437 -16.08626847262339 -3.70078747405515
  endloop
endfacet
facet normal 3.2187106293212194e-47 0.9982832943092148 -0.05857016564038153
  outer loop
    vertex 141.55429025700437 -16.08626847262339 -3.70078747405515
    vertex 77.67929025700431 -15.315477650987154 9.436747518942285
    vertex 142.0366521667993 -16.074566104036116 -3.5013296282935444
  endloop
endfacet
facet normal 3.2187106293212194e-47 0.9982832943092148 -0.05857016564038153
  outer loop
    vertex 142.0366521667993 -16.074566104036116 -3.5013296282935444
    vertex 77.67929025700431 -15.315477650987154 9.436747518942285
    vertex 142.55429025700437 -16.070574644039503 -3.433298271527522
  endloop
endfacet
facet normal 3.2187106293212194e-47 0.9982832943092148 -0.05857016564038153
  outer loop
    vertex 154.5542902570043 -16.602417785413017 -12.498154370554559
    vertex 217.42929025700437 -15.315477650987154 9.436747518942285
    vertex 217.42929025700437 -16.71955811669375 -14.494720959172966
  endloop
endfacet
facet normal 3.2187106293212194e-47 0.9982832943092148 -0.05857016564038153
  outer loop
    vertex 217.42929025700437 -15.315477650987154 9.436747518942285
    vertex 154.5542902570043 -16.602417785413017 -12.498154370554559
    vertex 154.5542902570043 -16.1877149753202 -5.429864860145999
  endloop
endfacet
facet normal 3.2187106293212194e-47 0.9982832943092148 -0.05857016564038153
  outer loop
    vertex 217.42929025700437 -15.315477650987154 9.436747518942285
    vertex 154.5542902570043 -16.1877149753202 -5.429864860145999
    vertex 154.48614190958244 -16.1573968266351 -4.913115402196177
  endloop
endfacet
facet normal 3.2187106293212194e-47 0.9982832943092148 -0.05857016564038153
  outer loop
    vertex 217.42929025700437 -15.315477650987154 9.436747518942285
    vertex 154.48614190958244 -16.1573968266351 -4.913115402196177
    vertex 154.28634106457318 -16.1291448096798 -4.431581565836784
  endloop
endfacet
facet normal 3.2187106293212194e-47 0.9982832943092148 -0.05857016564038153
  outer loop
    vertex 217.42929025700437 -15.315477650987154 9.436747518942285
    vertex 154.28634106457318 -16.1291448096798 -4.431581565836784
    vertex 153.96850381937742 -16.10488425272112 -4.018079086243417
  endloop
endfacet
facet normal 3.2187106293212194e-47 0.9982832943092148 -0.05857016564038153
  outer loop
    vertex 217.42929025700437 -15.315477650987154 9.436747518942285
    vertex 153.96850381937742 -16.10488425272112 -4.018079086243417
    vertex 153.5542902570043 -16.08626847262334 -3.7007874740552036
  endloop
endfacet
facet normal 3.2187106293212194e-47 0.9982832943092148 -0.05857016564038153
  outer loop
    vertex 217.42929025700437 -15.315477650987154 9.436747518942285
    vertex 153.5542902570043 -16.08626847262334 -3.7007874740552036
    vertex 153.07192834720934 -16.074566104036062 -3.5013296282935977
  endloop
endfacet
facet normal 3.2187106293212194e-47 0.9982832943092148 -0.05857016564038153
  outer loop
    vertex 217.42929025700437 -15.315477650987154 9.436747518942285
    vertex 153.07192834720934 -16.074566104036062 -3.5013296282935977
    vertex 152.5542902570043 -16.070574644039446 -3.4332982715275673
  endloop
endfacet
facet normal 3.2187106293212194e-47 0.9982832943092148 -0.05857016564038153
  outer loop
    vertex 217.42929025700437 -15.315477650987154 9.436747518942285
    vertex 152.5542902570043 -16.070574644039446 -3.4332982715275673
    vertex 142.55429025700437 -16.070574644039503 -3.433298271527522
  endloop
endfacet
facet normal 3.2187106293212194e-47 0.9982832943092148 -0.05857016564038153
  outer loop
    vertex 217.42929025700437 -15.315477650987154 9.436747518942285
    vertex 142.55429025700437 -16.070574644039503 -3.433298271527522
    vertex 77.67929025700431 -15.315477650987154 9.436747518942285
  endloop
endfacet
facet normal 1.3668415608690548e-15 -0.20180029333278332 0.9794266902687524
  outer loop
    vertex 81.67929025700434 -22.171464482869265 8.024145465612524
    vertex 213.42929025700437 -19.23318441206246 8.629546345610795
    vertex 81.67929025700431 -19.23318441206246 8.629546345610795
  endloop
endfacet
facet normal 1.3668415608690548e-15 -0.20180029333278332 0.9794266902687524
  outer loop
    vertex 213.42929025700437 -19.23318441206246 8.629546345610795
    vertex 81.67929025700434 -22.171464482869265 8.024145465612524
    vertex 213.42929025700437 -22.17146448286842 8.024145465612326
  endloop
endfacet
facet normal 5.744351570004771e-15 -0.998283294309215 0.058570165640377155
  outer loop
    vertex 213.42929025700437 -22.17146448286842 8.024145465612326
    vertex 156.6042902570043 -23.352291096896835 -12.102133321060018
    vertex 213.42929025700428 -23.352291096896383 -12.102133321060109
  endloop
endfacet
facet normal 5.744351570004771e-15 -0.998283294309215 0.058570165640377155
  outer loop
    vertex 156.6042902570043 -23.352291096896835 -12.102133321060018
    vertex 213.42929025700437 -22.17146448286842 8.024145465612326
    vertex 154.5542902570043 -22.93758828680395 -5.033843810651447
  endloop
endfacet
facet normal 5.744351570004771e-15 -0.998283294309215 0.058570165640377155
  outer loop
    vertex 154.5542902570043 -22.93758828680395 -5.033843810651447
    vertex 213.42929025700437 -22.17146448286842 8.024145465612326
    vertex 154.48614190958244 -22.90727013811885 -4.517094352701634
  endloop
endfacet
facet normal 5.744351570004771e-15 -0.998283294309215 0.058570165640377155
  outer loop
    vertex 154.48614190958244 -22.90727013811885 -4.517094352701634
    vertex 213.42929025700437 -22.17146448286842 8.024145465612326
    vertex 154.28634106457318 -22.879018121163558 -4.035560516342239
  endloop
endfacet
facet normal 5.744351570004771e-15 -0.998283294309215 0.058570165640377155
  outer loop
    vertex 154.28634106457318 -22.879018121163558 -4.035560516342239
    vertex 213.42929025700437 -22.17146448286842 8.024145465612326
    vertex 153.96850381937742 -22.85475756420487 -3.6220580367488684
  endloop
endfacet
facet normal 5.744351570004771e-15 -0.998283294309215 0.058570165640377155
  outer loop
    vertex 153.96850381937742 -22.85475756420487 -3.6220580367488684
    vertex 213.42929025700437 -22.17146448286842 8.024145465612326
    vertex 153.5542902570043 -22.83614178410707 -3.304766424560661
  endloop
endfacet
facet normal 5.744351570004771e-15 -0.998283294309215 0.058570165640377155
  outer loop
    vertex 153.5542902570043 -22.83614178410707 -3.304766424560661
    vertex 213.42929025700437 -22.17146448286842 8.024145465612326
    vertex 153.07192834720937 -22.824439415519794 -3.1053085787990495
  endloop
endfacet
facet normal 5.744351570004771e-15 -0.998283294309215 0.058570165640377155
  outer loop
    vertex 153.07192834720937 -22.824439415519794 -3.1053085787990495
    vertex 213.42929025700437 -22.17146448286842 8.024145465612326
    vertex 152.5542902570043 -22.820447955523168 -3.0372772220330218
  endloop
endfacet
facet normal 5.744351570004771e-15 -0.998283294309215 0.058570165640377155
  outer loop
    vertex 152.5542902570043 -22.820447955523168 -3.0372772220330218
    vertex 213.42929025700437 -22.17146448286842 8.024145465612326
    vertex 142.55429025700434 -22.820447955523242 -3.037277222033002
  endloop
endfacet
facet normal 5.744351570004771e-15 -0.998283294309215 0.058570165640377155
  outer loop
    vertex 140.55429025700428 -23.352291096896863 -12.102133321060004
    vertex 81.67929025700434 -23.35229109689704 -12.102133321059787
    vertex 138.5042902570043 -23.352291096896835 -12.102133321060018
  endloop
endfacet
facet normal 5.744351570004771e-15 -0.998283294309215 0.058570165640377155
  outer loop
    vertex 81.67929025700434 -23.35229109689704 -12.102133321059787
    vertex 140.55429025700428 -23.352291096896863 -12.102133321060004
    vertex 140.55429025700434 -22.93758828680402 -5.0338438106514305
  endloop
endfacet
facet normal 5.744351570004771e-15 -0.998283294309215 0.058570165640377155
  outer loop
    vertex 81.67929025700434 -23.35229109689704 -12.102133321059787
    vertex 140.55429025700434 -22.93758828680402 -5.0338438106514305
    vertex 81.67929025700434 -22.171464482869265 8.024145465612524
  endloop
endfacet
facet normal 5.744351570004771e-15 -0.998283294309215 0.058570165640377155
  outer loop
    vertex 81.67929025700434 -22.171464482869265 8.024145465612524
    vertex 140.55429025700434 -22.93758828680402 -5.0338438106514305
    vertex 140.62243860442615 -22.907270138118935 -4.517094352701606
  endloop
endfacet
facet normal 5.744351570004771e-15 -0.998283294309215 0.058570165640377155
  outer loop
    vertex 81.67929025700434 -22.171464482869265 8.024145465612524
    vertex 140.62243860442615 -22.907270138118935 -4.517094352701606
    vertex 140.82223944943547 -22.879018121163636 -4.035560516342214
  endloop
endfacet
facet normal 5.744351570004771e-15 -0.998283294309215 0.058570165640377155
  outer loop
    vertex 81.67929025700434 -22.171464482869265 8.024145465612524
    vertex 140.82223944943547 -22.879018121163636 -4.035560516342214
    vertex 141.14007669463123 -22.854757564204952 -3.6220580367488457
  endloop
endfacet
facet normal 5.744351570004771e-15 -0.998283294309215 0.058570165640377155
  outer loop
    vertex 81.67929025700434 -22.171464482869265 8.024145465612524
    vertex 141.14007669463123 -22.854757564204952 -3.6220580367488457
    vertex 141.55429025700434 -22.836141784107138 -3.3047664245606327
  endloop
endfacet
facet normal 5.744351570004771e-15 -0.998283294309215 0.058570165640377155
  outer loop
    vertex 81.67929025700434 -22.171464482869265 8.024145465612524
    vertex 141.55429025700434 -22.836141784107138 -3.3047664245606327
    vertex 142.03665216679926 -22.824439415519855 -3.105308578799024
  endloop
endfacet
facet normal 5.744351570004771e-15 -0.998283294309215 0.058570165640377155
  outer loop
    vertex 81.67929025700434 -22.171464482869265 8.024145465612524
    vertex 142.03665216679926 -22.824439415519855 -3.105308578799024
    vertex 142.55429025700434 -22.820447955523242 -3.037277222033002
  endloop
endfacet
facet normal 5.744351570004771e-15 -0.998283294309215 0.058570165640377155
  outer loop
    vertex 81.67929025700434 -22.171464482869265 8.024145465612524
    vertex 142.55429025700434 -22.820447955523242 -3.037277222033002
    vertex 213.42929025700437 -22.17146448286842 8.024145465612326
  endloop
endfacet
facet normal 5.744351570004771e-15 -0.998283294309215 0.058570165640377155
  outer loop
    vertex 154.5542902570043 -22.93758828680395 -5.033843810651447
    vertex 154.5542902570043 -23.35229109689681 -12.102133321060032
    vertex 156.6042902570043 -23.352291096896835 -12.102133321060018
  endloop
endfacet
facet normal -1.3217738121462867e-16 0.9982832943092148 -0.058570165640383566
  outer loop
    vertex 81.67929025700431 -63.06917224198139 -12.883078207434512
    vertex 213.42929025700437 -62.327958783887205 -0.24966656103461374
    vertex 213.42929025700428 -63.06917224198136 -12.883078207434538
  endloop
endfacet
facet normal -1.3217738121462867e-16 0.9982832943092148 -0.058570165640383566
  outer loop
    vertex 213.42929025700437 -62.327958783887205 -0.24966656103461374
    vertex 81.67929025700431 -63.06917224198139 -12.883078207434512
    vertex 81.67929025700431 -62.327958783887205 -0.24966656103461374
  endloop
endfacet
facet normal 0.0 -0.793353340291228 0.6087614290087302
  outer loop
    vertex 217.42929025700408 -68.22817335867234 1.2025240839884557
    vertex 77.67929025700431 -68.33327915067676 1.065547549015725
    vertex 217.42929025700408 -68.33327915067676 1.065547549015725
  endloop
endfacet
facet normal 0.0 -0.793353340291228 0.6087614290087302
  outer loop
    vertex 77.67929025700431 -68.33327915067676 1.065547549015725
    vertex 217.42929025700408 -68.22817335867234 1.2025240839884557
    vertex 77.67929025700431 -68.22817335867234 1.2025240839884557
  endloop
endfacet
facet normal 0.0 -0.7933533402912343 0.6087614290087218
  outer loop
    vertex 217.42929025700408 -68.33327915067676 1.065547549015725
    vertex 77.67929025700431 -68.60737682599233 0.7083365039076864
    vertex 217.42929025700408 -68.60737682599233 0.7083365039076864
  endloop
endfacet
facet normal 0.0 -0.7933533402912343 0.6087614290087218
  outer loop
    vertex 77.67929025700431 -68.60737682599233 0.7083365039076864
    vertex 217.42929025700408 -68.33327915067676 1.065547549015725
    vertex 77.67929025700431 -68.33327915067676 1.065547549015725
  endloop
endfacet
facet normal 0.0 -0.923879532511289 0.3826834323650845
  outer loop
    vertex 217.42929025700408 -68.60737682599233 0.7083365039076864
    vertex 77.67929025700431 -68.84575409091703 0.1328428779650473
    vertex 217.42929025700408 -68.84575409091703 0.1328428779650473
  endloop
endfacet
facet normal 0.0 -0.923879532511289 0.3826834323650845
  outer loop
    vertex 77.67929025700431 -68.84575409091703 0.1328428779650473
    vertex 217.42929025700408 -68.60737682599233 0.7083365039076864
    vertex 77.67929025700431 -68.60737682599233 0.7083365039076864
  endloop
endfacet
facet normal -2.840747456269028e-20 -0.9914448613738098 0.13052619222005707
  outer loop
    vertex 217.42929025700408 -68.84575409091703 0.1328428779650473
    vertex 77.67929025700431 -68.9234598746956 -0.45739114875352704
    vertex 217.42929025700408 -68.9234598746956 -0.45739114875352704
  endloop
endfacet
facet normal -2.840747456269028e-20 -0.9914448613738098 0.13052619222005707
  outer loop
    vertex 77.67929025700431 -68.9234598746956 -0.45739114875352704
    vertex 217.42929025700408 -68.84575409091703 0.1328428779650473
    vertex 77.67929025700431 -68.84575409091703 0.1328428779650473
  endloop
endfacet
facet normal 0.0 -0.38268343236508817 0.9238795325112875
  outer loop
    vertex 217.42929025700408 -67.73398577859156 1.5817275513084448
    vertex 77.67929025700431 -67.15849215264893 1.8201048162331528
    vertex 77.67929025700431 -67.73398577859156 1.5817275513084448
  endloop
endfacet
facet normal 0.0 -0.38268343236508817 0.9238795325112875
  outer loop
    vertex 77.67929025700431 -67.15849215264893 1.8201048162331528
    vertex 217.42929025700408 -67.73398577859156 1.5817275513084448
    vertex 217.42929025700408 -67.15849215264893 1.8201048162331528
  endloop
endfacet
facet normal 0.0 -0.6087614290087222 0.7933533402912342
  outer loop
    vertex 217.42929025700408 -68.22817335867234 1.2025240839884557
    vertex 77.67929025700431 -67.73398577859156 1.5817275513084448
    vertex 77.67929025700431 -68.22817335867234 1.2025240839884557
  endloop
endfacet
facet normal 0.0 -0.6087614290087222 0.7933533402912342
  outer loop
    vertex 77.67929025700431 -67.73398577859156 1.5817275513084448
    vertex 217.42929025700408 -68.22817335867234 1.2025240839884557
    vertex 217.42929025700408 -67.73398577859156 1.5817275513084448
  endloop
endfacet
facet normal -1.0 0.0 0.0
  outer loop
    vertex 77.67929025700431 -68.9234598746956 -0.45739114875352704
    vertex 77.67929025700431 -68.9270601367789 -0.5187548388438525
    vertex 77.67929025700431 -68.9270601367789 -0.4847378542796527
  endloop
endfacet
facet normal -1.0 0.0 0.0
  outer loop
    vertex 77.67929025700431 -68.9270601367789 -0.5187548388438525
    vertex 77.67929025700431 -16.71955811669375 -14.494720959172966
    vertex 77.67929025700431 -69.74704245574407 -14.494720959172966
  endloop
endfacet
facet normal -1.0 0.0 0.0
  outer loop
    vertex 77.67929025700431 -16.71955811669375 -14.494720959172966
    vertex 77.67929025700431 -68.9270601367789 -0.5187548388438525
    vertex 77.67929025700431 -68.9234598746956 -0.45739114875352704
  endloop
endfacet
facet normal -1.0 0.0 0.0
  outer loop
    vertex 77.67929025700431 -16.71955811669375 -14.494720959172966
    vertex 77.67929025700431 -68.9234598746956 -0.45739114875352704
    vertex 77.67929025700431 -68.84575409091703 0.1328428779650473
  endloop
endfacet
facet normal -1.0 0.0 0.0
  outer loop
    vertex 77.67929025700431 -16.71955811669375 -14.494720959172966
    vertex 77.67929025700431 -68.84575409091703 0.1328428779650473
    vertex 77.67929025700431 -68.60737682599233 0.7083365039076864
  endloop
endfacet
facet normal -1.0 0.0 0.0
  outer loop
    vertex 77.67929025700431 -16.71955811669375 -14.494720959172966
    vertex 77.67929025700431 -68.60737682599233 0.7083365039076864
    vertex 77.67929025700431 -68.33327915067676 1.065547549015725
  endloop
endfacet
facet normal -1.0 0.0 0.0
  outer loop
    vertex 77.67929025700431 -16.71955811669375 -14.494720959172966
    vertex 77.67929025700431 -68.33327915067676 1.065547549015725
    vertex 77.67929025700431 -68.22817335867234 1.2025240839884557
  endloop
endfacet
facet normal -1.0 0.0 0.0
  outer loop
    vertex 77.67929025700431 -16.71955811669375 -14.494720959172966
    vertex 77.67929025700431 -68.22817335867234 1.2025240839884557
    vertex 77.67929025700431 -67.73398577859156 1.5817275513084448
  endloop
endfacet
facet normal -1.0 0.0 0.0
  outer loop
    vertex 77.67929025700431 -16.71955811669375 -14.494720959172966
    vertex 77.67929025700431 -67.73398577859156 1.5817275513084448
    vertex 77.67929025700431 -67.15849215264893 1.8201048162331528
  endloop
endfacet
facet normal -1.0 0.0 0.0
  outer loop
    vertex 77.67929025700431 -16.71955811669375 -14.494720959172966
    vertex 77.67929025700431 -67.15849215264893 1.8201048162331528
    vertex 77.67929025700431 -67.13114544712288 1.8237050783164448
  endloop
endfacet
facet normal -1.0 0.0 0.0
  outer loop
    vertex 77.67929025700431 -16.71955811669375 -14.494720959172966
    vertex 77.67929025700431 -67.13114544712288 1.8237050783164448
    vertex 77.67929025700431 -66.85106642496068 1.8814123364402762
  endloop
endfacet
facet normal -1.0 0.0 0.0
  outer loop
    vertex 77.67929025700431 -16.71955811669375 -14.494720959172966
    vertex 77.67929025700431 -66.85106642496068 1.8814123364402762
    vertex 77.67929025700431 -17.879731911523493 11.97142700308277
  endloop
endfacet
facet normal -1.0 0.0 0.0
  outer loop
    vertex 77.67929025700431 -16.71955811669375 -14.494720959172966
    vertex 77.67929025700431 -17.879731911523493 11.97142700308277
    vertex 77.67929025700431 -17.35899099357702 12.009140211163576
  endloop
endfacet
facet normal -1.0 0.0 0.0
  outer loop
    vertex 77.67929025700431 -16.71955811669375 -14.494720959172966
    vertex 77.67929025700431 -17.35899099357702 12.009140211163576
    vertex 77.67929025700431 -16.84623299562381 11.91079070571253
  endloop
endfacet
facet normal -1.0 0.0 0.0
  outer loop
    vertex 77.67929025700431 -16.71955811669375 -14.494720959172966
    vertex 77.67929025700431 -16.84623299562381 11.91079070571253
    vertex 77.67929025700431 -16.376401527851662 11.683080842995675
  endloop
endfacet
facet normal -1.0 0.0 0.0
  outer loop
    vertex 77.67929025700431 -16.71955811669375 -14.494720959172966
    vertex 77.67929025700431 -16.376401527851662 11.683080842995675
    vertex 77.67929025700431 -15.315477650987154 9.436747518942285
  endloop
endfacet
facet normal -1.0 0.0 0.0
  outer loop
    vertex 77.67929025700431 -15.315477650987154 9.436747518942285
    vertex 77.67929025700431 -16.376401527851662 11.683080842995675
    vertex 77.67929025700431 -15.981514828356053 11.341528673848828
  endloop
endfacet
facet normal -1.0 0.0 0.0
  outer loop
    vertex 77.67929025700431 -15.315477650987154 9.436747518942285
    vertex 77.67929025700431 -15.981514828356053 11.341528673848828
    vertex 77.67929025700431 -15.688483773126482 10.909410414157694
  endloop
endfacet
facet normal -1.0 0.0 0.0
  outer loop
    vertex 77.67929025700431 -15.315477650987154 9.436747518942285
    vertex 77.67929025700431 -15.688483773126482 10.909410414157694
    vertex 77.67929025700431 -15.517277944320108 10.416174209211034
  endloop
endfacet
facet normal 2.543233475441796e-33 0.9447073352816387 0.32791470028814756
  outer loop
    vertex 77.67929025700431 -15.688483773126482 10.909410414157694
    vertex 217.42929025700394 -15.517277944320108 10.416174209211034
    vertex 77.67929025700431 -15.517277944320108 10.416174209211034
  endloop
endfacet
facet normal 2.543233475441796e-33 0.9447073352816387 0.32791470028814756
  outer loop
    vertex 217.42929025700394 -15.517277944320108 10.416174209211034
    vertex 77.67929025700431 -15.688483773126482 10.909410414157694
    vertex 217.42929025700394 -15.688483773126482 10.909410414157694
  endloop
endfacet
facet normal 0.0 0.8276466438296066 0.5612495282470964
  outer loop
    vertex 77.67929025700431 -15.981514828356053 11.341528673848828
    vertex 217.42929025700394 -15.688483773126482 10.909410414157694
    vertex 77.67929025700431 -15.688483773126482 10.909410414157694
  endloop
endfacet
facet normal 0.0 0.8276466438296066 0.5612495282470964
  outer loop
    vertex 217.42929025700394 -15.688483773126482 10.909410414157694
    vertex 77.67929025700431 -15.981514828356053 11.341528673848828
    vertex 217.42929025700394 -15.981514828356053 11.341528673848828
  endloop
endfacet
facet normal 0.0 0.6541832013513289 0.7563361283647152
  outer loop
    vertex 217.42929025700394 -16.376401527851662 11.683080842995675
    vertex 77.67929025700431 -15.981514828356053 11.341528673848828
    vertex 77.67929025700431 -16.376401527851662 11.683080842995675
  endloop
endfacet
facet normal 0.0 0.6541832013513289 0.7563361283647152
  outer loop
    vertex 77.67929025700431 -15.981514828356053 11.341528673848828
    vertex 217.42929025700394 -16.376401527851662 11.683080842995675
    vertex 217.42929025700394 -15.981514828356053 11.341528673848828
  endloop
endfacet
facet normal 0.0 0.43613825478981744 0.8998796712388233
  outer loop
    vertex 217.42929025700394 -16.84623299562381 11.91079070571253
    vertex 77.67929025700431 -16.376401527851662 11.683080842995675
    vertex 77.67929025700431 -16.84623299562381 11.91079070571253
  endloop
endfacet
facet normal 0.0 0.43613825478981744 0.8998796712388233
  outer loop
    vertex 77.67929025700431 -16.376401527851662 11.683080842995675
    vertex 217.42929025700394 -16.84623299562381 11.91079070571253
    vertex 217.42929025700394 -16.376401527851662 11.683080842995675
  endloop
endfacet
facet normal 0.0 0.18837120691692463 0.9820979016394757
  outer loop
    vertex 217.42929025700394 -17.35899099357702 12.009140211163576
    vertex 77.67929025700431 -16.84623299562381 11.91079070571253
    vertex 77.67929025700431 -17.35899099357702 12.009140211163576
  endloop
endfacet
facet normal 0.0 0.18837120691692463 0.9820979016394757
  outer loop
    vertex 77.67929025700431 -16.84623299562381 11.91079070571253
    vertex 217.42929025700394 -17.35899099357702 12.009140211163576
    vertex 217.42929025700394 -16.84623299562381 11.91079070571253
  endloop
endfacet
facet normal -1.6244572821665217e-33 -0.07223302740882652 0.9973877830369469
  outer loop
    vertex 217.42929025700394 -17.879731911523493 11.97142700308277
    vertex 77.67929025700431 -17.35899099357702 12.009140211163576
    vertex 77.67929025700431 -17.879731911523493 11.97142700308277
  endloop
endfacet
facet normal -1.6244572821665217e-33 -0.07223302740882652 0.9973877830369469
  outer loop
    vertex 77.67929025700431 -17.35899099357702 12.009140211163576
    vertex 217.42929025700394 -17.879731911523493 11.97142700308277
    vertex 217.42929025700394 -17.35899099357702 12.009140211163576
  endloop
endfacet
facet normal 5.052315509950002e-16 -0.019658994891354437 0.9998067432858522
  outer loop
    vertex 156.6042902570043 -54.32664114386691 -13.711368905977858
    vertex 138.5042902570043 -23.33263210200548 -13.10194006434587
    vertex 138.5042902570043 -54.32664114386691 -13.711368905977858
  endloop
endfacet
facet normal 5.052315509950002e-16 -0.019658994891354437 0.9998067432858522
  outer loop
    vertex 138.5042902570043 -23.33263210200548 -13.10194006434587
    vertex 156.6042902570043 -54.32664114386691 -13.711368905977858
    vertex 140.55429025700428 -23.332632102005515 -13.101940064345857
  endloop
endfacet
facet normal 5.052315509950002e-16 -0.019658994891354437 0.9998067432858522
  outer loop
    vertex 140.55429025700428 -23.332632102005515 -13.101940064345857
    vertex 156.6042902570043 -54.32664114386691 -13.711368905977858
    vertex 154.5542902570043 -23.33263210200546 -13.101940064345884
  endloop
endfacet
facet normal 5.052315509950002e-16 -0.019658994891354437 0.9998067432858522
  outer loop
    vertex 154.5542902570043 -23.33263210200546 -13.101940064345884
    vertex 156.6042902570043 -54.32664114386691 -13.711368905977858
    vertex 156.6042902570043 -23.33263210200548 -13.10194006434587
  endloop
endfacet
facet normal 1.0 9.932344479961786e-18 -5.051339116055709e-16
  outer loop
    vertex 138.5042902570043 -54.32664114386691 -13.711368905977858
    vertex 138.5042902570043 -23.352291096896835 -12.102133321060018
    vertex 138.5042902570043 -54.34630013875826 -12.711562162692005
  endloop
endfacet
facet normal 1.0 9.932344479961786e-18 -5.051339116055709e-16
  outer loop
    vertex 138.5042902570043 -23.352291096896835 -12.102133321060018
    vertex 138.5042902570043 -54.32664114386691 -13.711368905977858
    vertex 138.5042902570043 -23.33263210200548 -13.10194006434587
  endloop
endfacet
facet normal 0.0 0.9998067432858522 0.019658994891354437
  outer loop
    vertex 138.5042902570043 -54.34630013875826 -12.711562162692005
    vertex 156.6042902570043 -54.32664114386691 -13.711368905977858
    vertex 138.5042902570043 -54.32664114386691 -13.711368905977858
  endloop
endfacet
facet normal 0.0 0.9998067432858522 0.019658994891354437
  outer loop
    vertex 156.6042902570043 -54.32664114386691 -13.711368905977858
    vertex 138.5042902570043 -54.34630013875826 -12.711562162692005
    vertex 156.6042902570043 -54.34630013875826 -12.711562162692005
  endloop
endfacet
facet normal -1.0 -9.932344479961786e-18 5.051339116055709e-16
  outer loop
    vertex 156.6042902570043 -23.352291096896835 -12.102133321060018
    vertex 156.6042902570043 -54.32664114386691 -13.711368905977858
    vertex 156.6042902570043 -54.34630013875826 -12.711562162692005
  endloop
endfacet
facet normal -1.0 -9.932344479961786e-18 5.051339116055709e-16
  outer loop
    vertex 156.6042902570043 -54.32664114386691 -13.711368905977858
    vertex 156.6042902570043 -23.352291096896835 -12.102133321060018
    vertex 156.6042902570043 -23.33263210200548 -13.10194006434587
  endloop
endfacet
facet normal -1.3604540324003335e-14 -0.9998067432858522 -0.019658994891354434
  outer loop
    vertex 156.6042902570043 -23.33263210200548 -13.10194006434587
    vertex 154.5542902570043 -23.35229109689681 -12.102133321060032
    vertex 154.5542902570043 -23.33263210200546 -13.101940064345884
  endloop
endfacet
facet normal -1.3604540324003335e-14 -0.9998067432858522 -0.019658994891354434
  outer loop
    vertex 154.5542902570043 -23.35229109689681 -12.102133321060032
    vertex 156.6042902570043 -23.33263210200548 -13.10194006434587
    vertex 156.6042902570043 -23.352291096896835 -12.102133321060018
  endloop
endfacet
facet normal -1.361806171587509e-14 -0.9998067432858522 -0.019658994891354434
  outer loop
    vertex 140.55429025700428 -23.332632102005515 -13.101940064345857
    vertex 138.5042902570043 -23.352291096896835 -12.102133321060018
    vertex 138.5042902570043 -23.33263210200548 -13.10194006434587
  endloop
endfacet
facet normal -1.361806171587509e-14 -0.9998067432858522 -0.019658994891354434
  outer loop
    vertex 138.5042902570043 -23.352291096896835 -12.102133321060018
    vertex 140.55429025700428 -23.332632102005515 -13.101940064345857
    vertex 140.55429025700428 -23.352291096896863 -12.102133321060004
  endloop
endfacet
facet normal 3.986166727267877e-15 -0.9998067432858521 -0.019658994891354437
  outer loop
    vertex 154.5542902570043 -23.35229109689681 -12.102133321060032
    vertex 140.55429025700428 -23.332632102005515 -13.101940064345857
    vertex 154.5542902570043 -23.33263210200546 -13.101940064345884
  endloop
endfacet
facet normal 3.986166727267877e-15 -0.9998067432858521 -0.019658994891354437
  outer loop
    vertex 140.55429025700428 -23.332632102005515 -13.101940064345857
    vertex 154.5542902570043 -23.35229109689681 -12.102133321060032
    vertex 140.55429025700428 -23.352291096896863 -12.102133321060004
  endloop
endfacet
facet normal 1.5005513200352539e-15 0.05857016564038107 0.9982832943092148
  outer loop
    vertex 154.5542902570043 -23.35229109689681 -12.102133321060032
    vertex 140.55429025700434 -16.602417785413085 -12.49815437055454
    vertex 140.55429025700428 -23.352291096896863 -12.102133321060004
  endloop
endfacet
facet normal 1.5005513200352539e-15 0.05857016564038107 0.9982832943092148
  outer loop
    vertex 140.55429025700434 -16.602417785413085 -12.49815437055454
    vertex 154.5542902570043 -23.35229109689681 -12.102133321060032
    vertex 154.5542902570043 -16.602417785413017 -12.498154370554559
  endloop
endfacet
endsolid nanoGuitarPedalMidi
