solid Untitled-5e35a992
facet normal 0.0 -1.0 0.0
  outer loop
    vertex 113.92059665667223 113.10717731980134 3.0
    vertex 103.12059665667222 113.10717731980134 0.0
    vertex 113.92059665667223 113.10717731980134 0.0
  endloop
endfacet
facet normal 0.0 -1.0 0.0
  outer loop
    vertex 103.12059665667222 113.10717731980134 0.0
    vertex 113.92059665667223 113.10717731980134 3.0
    vertex 103.12059665667222 113.10717731980134 2.9999999999999942
  endloop
endfacet
facet normal -1.0 -0.0 -0.0
  outer loop
    vertex 103.12059665667222 123.90717731980135 3.0
    vertex 103.12059665667222 113.10717731980134 0.0
    vertex 103.12059665667222 113.10717731980134 2.9999999999999942
  endloop
endfacet
facet normal -1.0 -0.0 -0.0
  outer loop
    vertex 103.12059665667222 113.10717731980134 0.0
    vertex 103.12059665667222 123.90717731980135 3.0
    vertex 103.12059665667222 123.90717731980135 0.0
  endloop
endfacet
facet normal -1.0 -0.0 -0.0
  outer loop
    vertex 113.92059665667223 123.90717731980135 10.999999999999998
    vertex 113.92059665667223 113.10717731980134 3.0
    vertex 113.92059665667223 113.10717731980134 10.999999999999998
  endloop
endfacet
facet normal -1.0 -0.0 -0.0
  outer loop
    vertex 113.92059665667223 113.10717731980134 3.0
    vertex 113.92059665667223 123.90717731980135 10.999999999999998
    vertex 113.92059665667223 123.90717731980135 3.0
  endloop
endfacet
facet normal -0.0 -1.0 -0.0
  outer loop
    vertex 113.92059665667223 123.90717731980135 10.999999999999998
    vertex 103.12059665667222 123.90717731980135 3.0
    vertex 113.92059665667223 123.90717731980135 3.0
  endloop
endfacet
facet normal -0.0 -1.0 -0.0
  outer loop
    vertex 103.12059665667222 123.90717731980135 3.0
    vertex 113.92059665667223 123.90717731980135 10.999999999999998
    vertex 103.12059665667222 123.90717731980135 10.999999999999998
  endloop
endfacet
facet normal 0.0 0.0 1.0
  outer loop
    vertex 116.92059665667222 113.10717731980134 10.999999999999998
    vertex 113.92059665667223 123.90717731980135 10.999999999999998
    vertex 113.92059665667223 113.10717731980134 10.999999999999998
  endloop
endfacet
facet normal 0.0 0.0 1.0
  outer loop
    vertex 113.92059665667223 123.90717731980135 10.999999999999998
    vertex 116.92059665667222 113.10717731980134 10.999999999999998
    vertex 113.92059665667223 126.90717731980133 10.999999999999998
  endloop
endfacet
facet normal 0.0 0.0 1.0
  outer loop
    vertex 113.92059665667223 126.90717731980133 10.999999999999998
    vertex 116.92059665667222 113.10717731980134 10.999999999999998
    vertex 116.92059665667222 126.90717731980133 10.999999999999998
  endloop
endfacet
facet normal 0.0 0.0 1.0
  outer loop
    vertex 113.92059665667223 123.90717731980135 10.999999999999998
    vertex 103.12059665667222 126.90717731980133 10.999999999999998
    vertex 103.12059665667222 123.90717731980135 10.999999999999998
  endloop
endfacet
facet normal 0.0 0.0 1.0
  outer loop
    vertex 103.12059665667222 126.90717731980133 10.999999999999998
    vertex 113.92059665667223 123.90717731980135 10.999999999999998
    vertex 113.92059665667223 126.90717731980133 10.999999999999998
  endloop
endfacet
facet normal 0.0 -1.0 0.0
  outer loop
    vertex 116.92059665667222 113.10717731980134 10.999999999999998
    vertex 113.92059665667223 113.10717731980134 0.0
    vertex 116.92059665667222 113.10717731980134 0.0
  endloop
endfacet
facet normal 0.0 -1.0 0.0
  outer loop
    vertex 113.92059665667223 113.10717731980134 0.0
    vertex 116.92059665667222 113.10717731980134 10.999999999999998
    vertex 113.92059665667223 113.10717731980134 3.0
  endloop
endfacet
facet normal 0.0 -1.0 0.0
  outer loop
    vertex 113.92059665667223 113.10717731980134 3.0
    vertex 116.92059665667222 113.10717731980134 10.999999999999998
    vertex 113.92059665667223 113.10717731980134 10.999999999999998
  endloop
endfacet
facet normal -1.0 -0.0 -0.0
  outer loop
    vertex 103.12059665667222 126.90717731980133 10.999999999999998
    vertex 103.12059665667222 123.90717731980135 3.0
    vertex 103.12059665667222 123.90717731980135 10.999999999999998
  endloop
endfacet
facet normal -1.0 -0.0 -0.0
  outer loop
    vertex 103.12059665667222 123.90717731980135 3.0
    vertex 103.12059665667222 126.90717731980133 10.999999999999998
    vertex 103.12059665667222 123.90717731980135 0.0
  endloop
endfacet
facet normal -1.0 -0.0 -0.0
  outer loop
    vertex 103.12059665667222 123.90717731980135 0.0
    vertex 103.12059665667222 126.90717731980133 10.999999999999998
    vertex 103.12059665667222 126.90717731980133 0.0
  endloop
endfacet
facet normal 1.0 0.0 0.0
  outer loop
    vertex 116.92059665667222 126.90717731980133 0.0
    vertex 116.92059665667222 113.10717731980134 10.999999999999998
    vertex 116.92059665667222 113.10717731980134 0.0
  endloop
endfacet
facet normal 1.0 0.0 0.0
  outer loop
    vertex 116.92059665667222 113.10717731980134 10.999999999999998
    vertex 116.92059665667222 126.90717731980133 0.0
    vertex 116.92059665667222 126.90717731980133 10.999999999999998
  endloop
endfacet
facet normal 0.0 1.0 0.0
  outer loop
    vertex 113.92059665667223 126.90717731980133 10.999999999999998
    vertex 116.92059665667222 126.90717731980133 0.0
    vertex 113.92059665667223 126.90717731980133 0.0
  endloop
endfacet
facet normal 0.0 1.0 0.0
  outer loop
    vertex 116.92059665667222 126.90717731980133 0.0
    vertex 113.92059665667223 126.90717731980133 10.999999999999998
    vertex 116.92059665667222 126.90717731980133 10.999999999999998
  endloop
endfacet
facet normal 0.0 1.0 0.0
  outer loop
    vertex 103.12059665667222 126.90717731980133 10.999999999999998
    vertex 113.92059665667223 126.90717731980133 0.0
    vertex 103.12059665667222 126.90717731980133 0.0
  endloop
endfacet
facet normal 0.0 1.0 0.0
  outer loop
    vertex 113.92059665667223 126.90717731980133 0.0
    vertex 103.12059665667222 126.90717731980133 10.999999999999998
    vertex 113.92059665667223 126.90717731980133 10.999999999999998
  endloop
endfacet
facet normal -2.611080076433238e-16 -2.611080076433238e-16 1.0
  outer loop
    vertex 113.92059665667223 113.10717731980134 3.0
    vertex 103.12059665667222 123.90717731980135 3.0
    vertex 103.12059665667222 113.10717731980134 2.9999999999999942
  endloop
endfacet
facet normal -2.611080076433238e-16 -2.611080076433238e-16 1.0
  outer loop
    vertex 103.12059665667222 123.90717731980135 3.0
    vertex 113.92059665667223 113.10717731980134 3.0
    vertex 113.92059665667223 123.90717731980135 3.0
  endloop
endfacet
facet normal 0.0 0.0 -1.0
  outer loop
    vertex 113.92059665667223 126.90717731980133 0.0
    vertex 103.12059665667222 123.90717731980135 0.0
    vertex 103.12059665667222 126.90717731980133 0.0
  endloop
endfacet
facet normal 0.0 0.0 -1.0
  outer loop
    vertex 103.12059665667222 123.90717731980135 0.0
    vertex 113.92059665667223 126.90717731980133 0.0
    vertex 103.12059665667222 113.10717731980134 0.0
  endloop
endfacet
facet normal 0.0 0.0 -1.0
  outer loop
    vertex 103.12059665667222 113.10717731980134 0.0
    vertex 113.92059665667223 126.90717731980133 0.0
    vertex 113.92059665667223 113.10717731980134 0.0
  endloop
endfacet
facet normal 0.0 0.0 -1.0
  outer loop
    vertex 113.92059665667223 113.10717731980134 0.0
    vertex 113.92059665667223 126.90717731980133 0.0
    vertex 116.92059665667222 126.90717731980133 0.0
  endloop
endfacet
facet normal 0.0 0.0 -1.0
  outer loop
    vertex 113.92059665667223 113.10717731980134 0.0
    vertex 116.92059665667222 126.90717731980133 0.0
    vertex 116.92059665667222 113.10717731980134 0.0
  endloop
endfacet
endsolid Untitled-5e35a992
